<svg width="30" height="30" viewBox="0 0 30 30" fill="none" xmlns="http://www.w3.org/2000/svg">
<path fill-rule="evenodd" clip-rule="evenodd" d="M8.15677 6.37598L6.97612 5.52833C4.28811 7.8096 2.57812 11.2108 2.57812 15C2.57812 21.8438 8.15625 27.4219 15 27.4219C21.8438 27.4219 27.4219 21.8438 27.4219 15C27.4219 8.15625 21.8438 2.57812 15 2.57812C13.5766 2.57812 12.208 2.81941 10.9329 3.26318L12.3311 4.31179C13.186 4.09794 14.0801 3.98438 15 3.98438C21.0703 3.98438 26.0156 8.92969 26.0156 15C26.0156 21.0703 21.0703 26.0156 15 26.0156C8.92969 26.0156 3.98438 21.0703 3.98438 15C3.98438 11.5125 5.61665 8.39637 8.15677 6.37598Z" fill="#444B54"/>
<path d="M20.2734 12.1875H9.72656C9.32812 12.1875 9.02344 11.8828 9.02344 11.4844C9.02344 11.0859 9.32812 10.7812 9.72656 10.7812H20.2734C20.6719 10.7812 20.9766 11.0859 20.9766 11.4844C20.9766 11.8828 20.6719 12.1875 20.2734 12.1875ZM20.2734 15.7031H9.72656C9.32812 15.7031 9.02344 15.3984 9.02344 15C9.02344 14.6016 9.32812 14.2969 9.72656 14.2969H20.2734C20.6719 14.2969 20.9766 14.6016 20.9766 15C20.9766 15.3984 20.6719 15.7031 20.2734 15.7031Z" fill="#444B54"/>
<path d="M20.2734 19.2188H9.72656C9.32812 19.2188 9.02344 18.9141 9.02344 18.5156C9.02344 18.1172 9.32812 17.8125 9.72656 17.8125H20.2734C20.6719 17.8125 20.9766 18.1172 20.9766 18.5156C20.9766 18.9141 20.6719 19.2188 20.2734 19.2188Z" fill="#444B54"/>
</svg>
