<svg width="15" height="15" viewBox="0 0 15 15" fill="none" xmlns="http://www.w3.org/2000/svg">
<path d="M11.25 5C11.25 4.00544 10.8549 3.05161 10.1517 2.34835C9.44839 1.64509 8.49456 1.25 7.5 1.25C6.50544 1.25 5.55161 1.64509 4.84835 2.34835C4.14509 3.05161 3.75 4.00544 3.75 5C3.75 9.375 1.875 10.625 1.875 10.625H13.125C13.125 10.625 11.25 9.375 11.25 5Z" stroke="#415B6A" stroke-linecap="round" stroke-linejoin="round"/>
<path d="M8.58144 13.125C8.47156 13.3144 8.31385 13.4717 8.12409 13.581C7.93433 13.6903 7.71918 13.7478 7.50019 13.7478C7.28121 13.7478 7.06606 13.6903 6.8763 13.581C6.68654 13.4717 6.52883 13.3144 6.41895 13.125" stroke="#4F46E5" stroke-linecap="round" stroke-linejoin="round"/>
</svg>
