<svg width="16" height="16" viewBox="0 0 16 16" fill="none" xmlns="http://www.w3.org/2000/svg">
<g clip-path="url(#clip0_928_504)">
<g clip-path="url(#clip1_928_504)">
<path d="M6.05353 12.6043C4.42137 12.6043 2.79049 12.6043 1.16089 12.6043C1.00788 12.6043 0.854863 12.6303 0.71562 12.537C0.643753 12.4945 0.585809 12.432 0.548855 12.3572C0.511902 12.2823 0.497538 12.1983 0.50752 12.1154C0.525882 11.9333 0.619986 11.7949 0.797483 11.7528C0.958561 11.7179 1.12312 11.7018 1.28789 11.7046C4.28239 11.7046 7.27688 11.6962 10.2706 11.7115C10.6531 11.7115 10.7824 11.6105 10.758 11.2203C10.7235 10.6847 10.7488 10.1492 10.7495 9.61364C10.7495 8.82638 10.989 8.68255 11.7051 9.04137C12.5589 9.46904 13.4143 9.89365 14.2605 10.3359C14.5366 10.4805 14.6009 10.4177 14.6001 10.1239C14.5917 8.4163 14.5887 6.70942 14.6001 5.00178C14.6001 4.62384 14.4808 4.64909 14.2115 4.78909C13.3416 5.24125 12.4641 5.67887 11.5873 6.11649C11.0211 6.39881 10.7503 6.2259 10.7457 5.58783C10.7457 5.01403 10.7235 4.44022 10.7526 3.86795C10.771 3.50454 10.6638 3.39131 10.2936 3.3936C7.87287 3.40967 5.45142 3.40125 3.03073 3.40125C2.62294 3.40125 2.2144 3.41885 1.80661 3.3959C1.48528 3.37754 1.395 3.49765 1.39653 3.81057C1.40801 5.95277 1.40265 8.09497 1.40265 10.2318C1.40265 10.3848 1.40725 10.5378 1.40265 10.6909C1.38888 11.0634 1.21445 11.2838 0.943612 11.2807C0.672776 11.2777 0.503695 11.0665 0.50293 10.6855C0.50293 8.92635 0.50293 7.16796 0.50293 5.41033C0.50293 4.63302 0.50293 3.85571 0.50293 3.07839C0.50293 2.64154 0.640644 2.50077 1.07061 2.5C4.40939 2.5 7.74765 2.5 11.0854 2.5C11.4832 2.5 11.6447 2.65301 11.6539 3.05008C11.6671 3.59788 11.6671 4.14567 11.6539 4.69346C11.6477 4.97883 11.7051 5.0584 11.989 4.90998C12.8565 4.45093 13.7341 4.01867 14.6093 3.57722C15.2275 3.26584 15.4976 3.4242 15.4983 4.10435C15.4983 6.41028 15.4983 8.71646 15.4983 11.0229C15.4983 11.6594 15.2244 11.8293 14.6568 11.5447C13.7808 11.1055 12.9032 10.6694 12.0349 10.2142C11.7533 10.0666 11.637 10.0673 11.6523 10.4323C11.6737 10.9288 11.66 11.4269 11.6569 11.9234C11.6531 12.4697 11.5223 12.602 10.9844 12.6028L6.05353 12.6043Z" fill="#415B6A"/>
<path d="M4.26396 7.55669C4.26396 6.89363 4.26396 6.23184 4.26396 5.57133C4.26396 5.34717 4.29686 5.14289 4.5172 5.01436C4.75055 4.87741 4.93264 5.00059 5.11396 5.11918C6.11467 5.77255 7.11411 6.4277 8.11227 7.08465C8.45961 7.31417 8.54148 7.55516 8.3701 7.80458C8.19873 8.05399 7.95773 8.06547 7.60503 7.83289C6.89122 7.36772 6.17893 6.90179 5.47048 6.42898C5.2685 6.29356 5.16445 6.26831 5.17363 6.57434C5.18664 7.23613 5.18281 7.89792 5.17363 8.56353C5.17363 8.80606 5.24478 8.82977 5.43146 8.70124C5.6824 8.52834 5.93794 8.36155 6.19653 8.19782C6.51404 7.99661 6.78028 8.01956 6.93024 8.26592C7.12609 8.58878 6.94248 8.79152 6.68694 8.95907C6.14527 9.31483 5.6059 9.67518 5.05734 10.0202C4.62201 10.2949 4.27926 10.1067 4.27008 9.58413C4.25478 8.90628 4.26396 8.23149 4.26396 7.55669Z" fill="#4F46E5"/>
</g>
</g>
<defs>
<clipPath id="clip0_928_504">
<rect width="15" height="15" fill="white" transform="translate(0.5 0.5)"/>
</clipPath>
<clipPath id="clip1_928_504">
<rect width="15" height="10.1074" fill="white" transform="translate(0.5 2.5)"/>
</clipPath>
</defs>
</svg>
