<svg width="16" height="10" viewBox="0 0 16 10" fill="none" xmlns="http://www.w3.org/2000/svg">
<g clip-path="url(#clip0_929_982)">
<path d="M11.4898 7.96701C11.4706 8.20283 11.4766 8.41849 11.4317 8.62225C11.3717 8.89552 11.2218 9.14077 11.006 9.31882C10.7901 9.49686 10.5209 9.59742 10.2412 9.60443C7.71913 9.69814 5.19677 9.7914 2.6741 9.8842C2.39479 9.89473 2.11502 9.91121 1.83525 9.91396C1.07698 9.92174 0.522935 9.38555 0.503704 8.62454C0.49592 8.32737 0.503704 8.02929 0.503704 7.73212C0.503704 5.63743 0.503704 3.54258 0.503704 1.44759C0.503704 0.750679 0.90161 0.239217 1.54449 0.108261C1.65683 0.0879508 1.77117 0.0808819 1.88516 0.0871983C3.63155 0.150082 5.37778 0.214338 7.12387 0.279969C8.14542 0.317974 9.16697 0.358727 10.1885 0.393985C10.9367 0.420084 11.4592 0.946657 11.4706 1.69714C11.4706 1.80383 11.4706 1.91051 11.4706 2.0433C11.5443 2.00346 11.5933 1.97965 11.6405 1.95172C12.2573 1.58129 12.8768 1.21361 13.489 0.838136C13.9304 0.568897 14.3819 0.528146 14.8366 0.780443C15.299 1.03732 15.4991 1.454 15.4991 1.97599C15.4991 3.9965 15.4991 6.01686 15.4991 8.03707C15.4991 8.77198 15.0321 9.30314 14.3228 9.37914C14.0284 9.41074 13.7601 9.32603 13.5082 9.17355C12.8931 8.80083 12.277 8.42979 11.6597 8.06042C11.6048 8.027 11.5471 7.99815 11.4898 7.96701ZM5.99013 1.3354C4.63722 1.28534 3.28447 1.23574 1.93186 1.18659C1.63194 1.1756 1.59943 1.21177 1.59943 1.51581V8.48901C1.59943 8.78801 1.63332 8.82464 1.9369 8.81319C4.67111 8.71246 7.40501 8.61065 10.1386 8.50778C10.3328 8.50045 10.3744 8.45238 10.3744 8.23305C10.3744 6.08036 10.3744 3.92828 10.3744 1.77681C10.3744 1.53504 10.3383 1.49979 10.0997 1.49063L5.99013 1.3354ZM14.4029 5.00264C14.4029 4.00719 14.4029 3.0122 14.3984 2.01674C14.3984 1.92517 14.3626 1.79055 14.2985 1.75391C14.2344 1.71728 14.103 1.75895 14.0238 1.8052C13.2039 2.29056 12.3872 2.78142 11.5736 3.27777C11.5463 3.29711 11.5234 3.32206 11.5065 3.35097C11.4896 3.37987 11.4791 3.41205 11.4757 3.44536C11.4699 4.4808 11.4699 5.51609 11.4757 6.55122C11.4783 6.58458 11.488 6.61699 11.5043 6.64623C11.5206 6.67547 11.543 6.70085 11.57 6.72064C12.3835 7.21669 13.2002 7.7077 14.0201 8.19367C14.0994 8.23946 14.2404 8.28525 14.2949 8.24907C14.3626 8.20329 14.3988 8.06592 14.3997 7.97114C14.4057 6.98164 14.4029 5.99214 14.4029 5.00264Z" fill="#415B6A"/>
<path d="M6.53554 5.55234C6.53554 5.95803 6.53554 6.34586 6.53554 6.73369C6.5387 6.82487 6.52946 6.91606 6.50807 7.00476C6.47256 7.12023 6.3988 7.22018 6.29894 7.28817C6.19908 7.35616 6.07905 7.38814 5.9586 7.37886C5.84043 7.37462 5.72718 7.33049 5.6373 7.25366C5.54742 7.17683 5.4862 7.07183 5.46362 6.95577C5.44472 6.82003 5.43752 6.68292 5.4421 6.54596C5.43889 6.22131 5.4421 5.89621 5.4421 5.55234H4.30058C3.87291 5.55234 3.61832 5.34812 3.61695 5.00287C3.61558 4.65762 3.86421 4.4534 4.29188 4.4534C4.65819 4.4534 5.0245 4.45233 5.39081 4.4502C5.40837 4.44558 5.42529 4.43881 5.44118 4.43005C5.44118 4.06786 5.44118 3.69743 5.44118 3.32791C5.43878 3.24215 5.44399 3.15634 5.45675 3.07149C5.50987 2.78486 5.74431 2.60857 6.0369 2.62734C6.16969 2.63527 6.29461 2.693 6.3867 2.789C6.4788 2.885 6.53129 3.0122 6.53371 3.14521C6.54241 3.51152 6.53691 3.87784 6.53737 4.24415V4.4534H6.90368C7.2004 4.4534 7.49894 4.45111 7.79474 4.4534C8.12488 4.45661 8.37351 4.69837 8.36939 5.00745C8.36527 5.31652 8.12259 5.54593 7.80206 5.54959C7.44216 5.55325 7.08226 5.54959 6.72236 5.54959L6.53554 5.55234Z" fill="#4F46E5"/>
</g>
<defs>
<clipPath id="clip0_929_982">
<rect width="15" height="9.8286" fill="white" transform="translate(0.5 0.0859375)"/>
</clipPath>
</defs>
</svg>
