<svg width="14" height="16" viewBox="0 0 14 16" fill="none" xmlns="http://www.w3.org/2000/svg">
<g clip-path="url(#clip0_928_974)">
<path d="M4.81818 7.89188C4.56811 7.6689 4.29886 7.47009 4.08089 7.22503C3.03351 6.0472 2.72009 4.68557 3.23482 3.19724C3.74955 1.70891 4.83193 0.809079 6.38819 0.554009C8.62882 0.186407 10.6786 1.73517 10.9882 3.98663C11.28 6.09554 9.77955 8.12569 7.67939 8.4462C7.29553 8.50496 6.90125 8.49121 6.51531 8.53706C4.22968 8.80921 2.66966 10.03 1.82776 12.1631C1.60687 12.7228 1.51809 13.315 1.50892 13.9173C1.50309 14.297 1.69981 14.4983 2.07741 14.4983H6.89792C6.96025 14.4956 7.02269 14.498 7.08464 14.5054C7.20273 14.5273 7.30898 14.5911 7.38395 14.6849C7.45893 14.7787 7.49763 14.8964 7.49297 15.0165C7.48832 15.1365 7.44062 15.2508 7.35861 15.3386C7.27659 15.4263 7.16573 15.4817 7.04629 15.4944C7.02045 15.4969 6.9942 15.4944 6.96836 15.4944C5.31456 15.4944 3.66119 15.4986 2.00865 15.4944C1.16341 15.4915 0.513647 14.8276 0.510313 13.9819C0.498643 11.337 2.21162 8.86298 4.68981 7.94356C4.73732 7.9273 4.78358 7.90605 4.81818 7.89188ZM6.99044 1.52053C5.35416 1.51636 4.01253 2.85881 4.0042 4.50927C3.99586 6.14723 5.34082 7.50427 6.97836 7.5101C8.62923 7.51594 9.98711 6.18432 9.99545 4.55095C10.0001 4.15384 9.92572 3.75978 9.77667 3.39167C9.62761 3.02357 9.40685 2.68879 9.12722 2.40679C8.84759 2.12479 8.51467 1.90121 8.14784 1.74906C7.781 1.59691 7.38758 1.51923 6.99044 1.52053Z" fill="#415B6A"/>
<path d="M10.246 11.2551C10.246 10.6553 10.2431 10.0789 10.246 9.50248C10.2461 9.37883 10.2925 9.25971 10.3762 9.16865C10.4598 9.07759 10.5746 9.02122 10.6978 9.01068C10.8181 9.0002 10.9381 9.03358 11.0357 9.10467C11.1333 9.17576 11.2019 9.27975 11.2288 9.39745C11.2405 9.46388 11.2451 9.53136 11.2425 9.59876C11.2425 10.1439 11.2425 10.6891 11.2425 11.2551H11.4159C11.9202 11.2551 12.4245 11.2551 12.9288 11.2551C13.2602 11.2551 13.4873 11.4576 13.489 11.7514C13.4907 12.0453 13.2631 12.2516 12.9339 12.2516C12.3779 12.2516 11.8223 12.2516 11.2425 12.2516V12.4216C11.2425 12.9468 11.245 13.4715 11.2425 13.9966C11.2438 14.119 11.1998 14.2375 11.1192 14.3294C11.0385 14.4214 10.9268 14.4804 10.8053 14.4952C10.6839 14.5099 10.5613 14.4794 10.4609 14.4094C10.3606 14.3394 10.2896 14.2349 10.2614 14.1158C10.2492 14.0548 10.244 13.9926 10.246 13.9304C10.246 13.4266 10.246 12.9225 10.246 12.4179V12.2512H9.73587C9.33076 12.2512 8.92523 12.2532 8.5197 12.2512C8.21836 12.2512 7.99621 12.0299 7.99955 11.7464C8.00288 11.463 8.22253 11.258 8.51428 11.2563C9.029 11.253 9.54373 11.2563 10.0564 11.2563L10.246 11.2551Z" fill="#4F46E5"/>
</g>
<defs>
<clipPath id="clip0_928_974">
<rect width="12.9819" height="15" fill="white" transform="translate(0.509033 0.5)"/>
</clipPath>
</defs>
</svg>
