<svg width="16" height="16" viewBox="0 0 16 16" fill="none" xmlns="http://www.w3.org/2000/svg">
<g clip-path="url(#clip0_928_977)">
<path d="M14.7255 15.5004C14.374 15.3723 14.2357 15.1176 14.2286 14.7469C14.1896 12.6871 12.6861 10.8406 10.679 10.3758C8.05364 9.76641 5.46146 11.5305 5.05403 14.2039C5.02559 14.3716 5.01251 14.5416 5.01497 14.7117C5.02708 15.091 4.88567 15.3621 4.52005 15.4969H4.25677C3.8513 15.3199 3.73958 15.1691 3.76263 14.7234C3.87982 12.4578 4.95208 10.7832 6.91497 9.67149C7.08255 9.57657 7.26224 9.50274 7.43763 9.41797C5.96653 8.08985 6.08841 5.82149 7.43138 4.5961C8.66653 3.46876 10.588 3.47188 11.822 4.60548C13.1419 5.81641 13.2857 8.07032 11.8333 9.39376C12.224 9.62813 12.647 9.83399 13.0204 10.1074C14.4532 11.1563 15.274 12.5684 15.4599 14.3445C15.4646 14.3871 15.4771 14.4293 15.4861 14.4715V14.9988C15.4518 15.1175 15.3883 15.2256 15.3014 15.3132C15.2144 15.4009 15.1068 15.4653 14.9884 15.5004H14.7255ZM9.61927 8.99883C10.0143 8.99922 10.4005 8.88252 10.7292 8.66348C11.0579 8.44444 11.3143 8.13289 11.466 7.7682C11.6177 7.4035 11.6579 7.00202 11.5816 6.61448C11.5052 6.22694 11.3157 5.87073 11.0369 5.59086C10.7582 5.31098 10.4028 5.12 10.0156 5.04204C9.62833 4.96409 9.22669 5.00265 8.86137 5.15286C8.49606 5.30307 8.18346 5.55819 7.96308 5.88599C7.74269 6.21378 7.62441 6.59955 7.62317 6.99454C7.62224 7.52498 7.83198 8.03408 8.20629 8.40992C8.58059 8.78577 9.08883 8.99759 9.61927 8.99883Z" fill="#415B6A"/>
<path d="M6.68343 0.5C6.95686 0.567969 7.2385 0.609375 7.49905 0.708985C8.48186 1.08555 9.13733 1.78555 9.4721 2.78594C9.47792 2.80428 9.48275 2.82293 9.48655 2.8418C9.48655 2.84648 9.48655 2.85156 9.48655 2.8457L8.25608 3.06992C8.04944 2.54453 7.68186 2.14023 7.14046 1.90625C6.77036 1.74726 6.35985 1.70779 5.96624 1.79336C5.18499 1.95234 4.54631 2.62031 4.40881 3.41445C4.25256 4.32461 4.65413 5.02891 5.68733 5.63867C5.53777 6.06621 5.45439 6.51408 5.44006 6.9668C5.44006 7 5.36897 7.04961 5.32288 7.06094C4.40591 7.28068 3.57868 7.77707 2.95335 8.48281C2.19124 9.33672 1.78655 10.3383 1.76428 11.4906C1.75764 11.8285 1.61506 12.0543 1.35217 12.1512C1.25687 12.1867 1.15431 12.1983 1.05349 12.1849C0.952663 12.1715 0.856661 12.1336 0.773904 12.0745C0.691146 12.0154 0.624162 11.9369 0.578828 11.8458C0.533494 11.7548 0.511196 11.654 0.51389 11.5523C0.511076 10.4376 0.833786 9.34638 1.44241 8.4125C2.06962 7.42638 2.97662 6.64968 4.04749 6.18164C4.08225 6.16641 4.11506 6.14688 4.15217 6.12773C4.0221 5.97383 3.88928 5.83242 3.77366 5.67773C2.29866 3.70312 3.53264 0.819531 5.97327 0.526953C6.00594 0.520437 6.03807 0.511426 6.06936 0.5H6.68343Z" fill="#415B6A"/>
<path d="M15.4858 2.52129C15.4435 2.60713 15.3952 2.68988 15.3413 2.76895C15.2865 2.841 15.2155 2.89913 15.1341 2.93862C15.0526 2.97812 14.963 2.99788 14.8725 2.99629C14.6686 2.99629 14.4647 2.99629 14.235 2.99629C14.235 3.22129 14.2401 3.43379 14.235 3.64629C14.2319 3.80555 14.1675 3.95746 14.0551 4.07036C13.9427 4.18326 13.7911 4.24844 13.6319 4.25232C13.4726 4.2562 13.318 4.19847 13.2003 4.09118C13.0826 3.98388 13.0108 3.83529 12.9999 3.67637C12.989 3.45801 12.9999 3.23887 12.9999 2.99512C12.7655 2.99512 12.5495 3.00215 12.3327 2.99512C12.1746 2.98598 12.0259 2.91667 11.9173 2.8014C11.8087 2.68613 11.7483 2.53364 11.7485 2.37525C11.7488 2.21685 11.8097 2.06456 11.9187 1.94964C12.0277 1.83471 12.1765 1.76586 12.3347 1.75723C12.5479 1.74902 12.7612 1.75723 12.9968 1.75723C12.9968 1.59707 13.0077 1.45176 12.9968 1.30879C12.9612 0.921289 13.1061 0.647461 13.4741 0.50293H13.7663C14.1417 0.648242 14.2776 0.932618 14.2436 1.31934C14.2315 1.45762 14.2436 1.59824 14.2436 1.75606H14.8686C14.9614 1.753 15.0535 1.77219 15.1373 1.81201C15.2211 1.85184 15.2941 1.91114 15.3503 1.98496C15.4041 2.06368 15.4521 2.14619 15.494 2.23184L15.4858 2.52129Z" fill="#4F46E5"/>
<path d="M14.9883 15.501C15.1064 15.466 15.2139 15.402 15.3009 15.3149C15.3879 15.2277 15.4517 15.1201 15.4865 15.002V15.501H14.9883Z" fill="white"/>
</g>
<defs>
<clipPath id="clip0_928_977">
<rect width="14.9711" height="15" fill="white" transform="translate(0.514648 0.5)"/>
</clipPath>
</defs>
</svg>
