<svg width="26" height="26" viewBox="0 0 26 26" fill="none" xmlns="http://www.w3.org/2000/svg">
<path d="M12.9999 23.4168C18.7529 23.4168 23.4166 18.7531 23.4166 13.0002C23.4166 7.2472 18.7529 2.5835 12.9999 2.5835C7.24695 2.5835 2.58325 7.2472 2.58325 13.0002C2.58325 18.7531 7.24695 23.4168 12.9999 23.4168Z" stroke="#415B6A" stroke-width="1.5" stroke-linecap="round" stroke-linejoin="round"/>
<path d="M9.96875 9.87511C10.2137 9.17893 10.697 8.59188 11.3333 8.21795C11.9695 7.84402 12.7176 7.70733 13.445 7.8321C14.1724 7.95686 14.8321 8.33503 15.3074 8.89961C15.7826 9.4642 16.0428 10.1788 16.0417 10.9168C16.0417 13.0001 12.9167 14.0418 12.9167 14.0418" stroke="#4F46E5" stroke-width="1.5" stroke-linecap="round" stroke-linejoin="round"/>
<path d="M13 18.2085H13.01" stroke="#4F46E5" stroke-width="1.5" stroke-linecap="round" stroke-linejoin="round"/>
</svg>
