<svg width="16" height="10" viewBox="0 0 16 10" fill="none" xmlns="http://www.w3.org/2000/svg">
<g clip-path="url(#clip0_955_87)">
<path d="M11.4898 7.96677C11.4706 8.20258 11.4766 8.41825 11.4317 8.62201C11.3717 8.89527 11.2218 9.14052 11.006 9.31857C10.7901 9.49662 10.5209 9.59718 10.2412 9.60418C7.71913 9.6979 5.19677 9.79115 2.6741 9.88395C2.39479 9.89448 2.11502 9.91097 1.83525 9.91372C1.07698 9.9215 0.522935 9.38531 0.503704 8.6243C0.49592 8.32713 0.503704 8.02904 0.503704 7.73187C0.503704 5.63718 0.503704 3.54234 0.503704 1.44734C0.503704 0.750435 0.90161 0.238973 1.54449 0.108017C1.65683 0.0877066 1.77117 0.0806378 1.88516 0.0869542C3.63155 0.149838 5.37778 0.214094 7.12387 0.279725C8.14542 0.31773 9.16697 0.358483 10.1885 0.393741C10.9367 0.41984 11.4592 0.946412 11.4706 1.69689C11.4706 1.80358 11.4706 1.91027 11.4706 2.04306C11.5443 2.00322 11.5933 1.97941 11.6405 1.95148C12.2573 1.58105 12.8768 1.21336 13.489 0.837892C13.9304 0.568653 14.3819 0.527902 14.8366 0.780199C15.299 1.03707 15.4991 1.45375 15.4991 1.97575C15.4991 3.99626 15.4991 6.01662 15.4991 8.03683C15.4991 8.77174 15.0321 9.30289 14.3228 9.3789C14.0284 9.41049 13.7601 9.32579 13.5082 9.17331C12.8931 8.80059 12.277 8.42954 11.6597 8.06018C11.6048 8.02675 11.5471 7.99791 11.4898 7.96677ZM5.99013 1.33516C4.63722 1.2851 3.28447 1.23549 1.93186 1.18635C1.63194 1.17536 1.59943 1.21153 1.59943 1.51557V8.48876C1.59943 8.78777 1.63332 8.8244 1.9369 8.81295C4.67111 8.71221 7.40501 8.61041 10.1386 8.50754C10.3328 8.50021 10.3744 8.45213 10.3744 8.2328C10.3744 6.08011 10.3744 3.92803 10.3744 1.77657C10.3744 1.5348 10.3383 1.49954 10.0997 1.49038L5.99013 1.33516ZM14.4029 5.0024C14.4029 4.00694 14.4029 3.01195 14.3984 2.0165C14.3984 1.92492 14.3626 1.7903 14.2985 1.75367C14.2344 1.71704 14.103 1.75871 14.0238 1.80496C13.2039 2.29032 12.3872 2.78117 11.5736 3.27753C11.5463 3.29686 11.5234 3.32182 11.5065 3.35072C11.4896 3.37963 11.4791 3.41181 11.4757 3.44511C11.4699 4.48055 11.4699 5.51584 11.4757 6.55098C11.4783 6.58434 11.488 6.61675 11.5043 6.64598C11.5206 6.67522 11.543 6.7006 11.57 6.72039C12.3835 7.21644 13.2002 7.70745 14.0201 8.19343C14.0994 8.23921 14.2404 8.285 14.2949 8.24883C14.3626 8.20304 14.3988 8.06567 14.3997 7.97089C14.4057 6.98139 14.4029 5.99189 14.4029 5.0024Z" fill="#415B6A"/>
<path d="M6.53554 5.55209C6.53554 5.95778 6.53554 6.34561 6.53554 6.73345C6.5387 6.82463 6.52946 6.91582 6.50807 7.00452C6.47256 7.11999 6.3988 7.21994 6.29894 7.28793C6.19908 7.35592 6.07905 7.3879 5.9586 7.37861C5.84043 7.37437 5.72718 7.33025 5.6373 7.25342C5.54742 7.17659 5.4862 7.07159 5.46362 6.95552C5.44472 6.81979 5.43752 6.68268 5.4421 6.54571C5.43889 6.22107 5.4421 5.89597 5.4421 5.55209H4.30058C3.87291 5.55209 3.61832 5.34787 3.61695 5.00263C3.61558 4.65738 3.86421 4.45316 4.29188 4.45316C4.65819 4.45316 5.0245 4.45209 5.39081 4.44995C5.40837 4.44533 5.42529 4.43857 5.44118 4.42981C5.44118 4.06762 5.44118 3.69718 5.44118 3.32767C5.43878 3.2419 5.44399 3.15609 5.45675 3.07125C5.50987 2.78461 5.74431 2.60832 6.0369 2.6271C6.16969 2.63503 6.29461 2.69276 6.3867 2.78876C6.4788 2.88476 6.53129 3.01196 6.53371 3.14497C6.54241 3.51128 6.53691 3.87759 6.53737 4.2439V4.45316H6.90368C7.2004 4.45316 7.49894 4.45087 7.79474 4.45316C8.12488 4.45636 8.37351 4.69813 8.36939 5.0072C8.36527 5.31628 8.12259 5.54568 7.80206 5.54935C7.44216 5.55301 7.08226 5.54935 6.72236 5.54935L6.53554 5.55209Z" fill="#4F46E5"/>
</g>
<defs>
<clipPath id="clip0_955_87">
<rect width="15" height="9.8286" fill="white" transform="translate(0.5 0.0856934)"/>
</clipPath>
</defs>
</svg>
