<svg width="16" height="11" viewBox="0 0 16 11" fill="none" xmlns="http://www.w3.org/2000/svg">
<g clip-path="url(#clip0_955_95)">
<path d="M6.05377 10.6043C4.42162 10.6043 2.79074 10.6043 1.16114 10.6043C1.00812 10.6043 0.855107 10.6303 0.715864 10.537C0.643997 10.4945 0.586053 10.432 0.5491 10.3572C0.512146 10.2823 0.497782 10.1983 0.507764 10.1154C0.526126 9.93334 0.62023 9.79486 0.797727 9.75278C0.958805 9.71794 1.12336 9.70177 1.28814 9.70458C4.28263 9.70458 7.27712 9.69616 10.2708 9.71146C10.6534 9.71146 10.7827 9.61048 10.7582 9.22029C10.7238 8.68474 10.749 8.14919 10.7498 7.61364C10.7498 6.82638 10.9893 6.68255 11.7054 7.04137C12.5592 7.46904 13.4145 7.89365 14.2607 8.33587C14.5369 8.48046 14.6012 8.41773 14.6004 8.12394C14.592 6.4163 14.5889 4.70942 14.6004 3.00178C14.6004 2.62384 14.481 2.64909 14.2117 2.78909C13.3418 3.24125 12.4643 3.67887 11.5875 4.11649C11.0214 4.39881 10.7505 4.2259 10.746 3.58783C10.746 3.01403 10.7238 2.44022 10.7528 1.86795C10.7712 1.50454 10.6641 1.39131 10.2938 1.3936C7.87311 1.40967 5.45166 1.40125 3.03097 1.40125C2.62319 1.40125 2.21464 1.41885 1.80686 1.3959C1.48553 1.37754 1.39525 1.49765 1.39678 1.81057C1.40825 3.95277 1.4029 6.09497 1.4029 8.23182C1.4029 8.38483 1.40749 8.53785 1.4029 8.69086C1.38913 9.06345 1.21469 9.28379 0.943856 9.28073C0.673021 9.27767 0.503939 9.06651 0.503174 8.6855C0.503174 6.92635 0.503174 5.16796 0.503174 3.41033C0.503174 2.63302 0.503174 1.85571 0.503174 1.07839C0.503174 0.641538 0.640888 0.500765 1.07086 0.5C4.40963 0.5 7.74789 0.5 11.0856 0.5C11.4835 0.5 11.6449 0.653012 11.6541 1.05008C11.6674 1.59788 11.6674 2.14567 11.6541 2.69346C11.648 2.97883 11.7054 3.0584 11.9892 2.90998C12.8568 2.45093 13.7343 2.01867 14.6096 1.57722C15.2277 1.26584 15.4978 1.4242 15.4986 2.10435C15.4986 4.41028 15.4986 6.71646 15.4986 9.0229C15.4986 9.65944 15.2247 9.82929 14.657 9.54468C13.781 9.10553 12.9035 8.66943 12.0351 8.21422C11.7536 8.06656 11.6373 8.06733 11.6526 8.43227C11.674 8.9288 11.6602 9.42686 11.6572 9.92339C11.6533 10.4697 11.5225 10.602 10.9847 10.6028L6.05377 10.6043Z" fill="#415B6A"/>
<path d="M4.26421 5.55718C4.26421 4.89412 4.26421 4.23233 4.26421 3.57182C4.26421 3.34766 4.2971 3.14338 4.51744 3.01485C4.75079 2.8779 4.93288 3.00108 5.1142 3.11966C6.11491 3.77303 7.11435 4.42819 8.11251 5.08513C8.45986 5.31465 8.54172 5.55565 8.37035 5.80507C8.19897 6.05448 7.95797 6.06596 7.60527 5.83337C6.89146 5.36821 6.17918 4.90228 5.47072 4.42947C5.26874 4.29405 5.1647 4.2688 5.17388 4.57483C5.18688 5.23662 5.18306 5.89841 5.17388 6.56402C5.17388 6.80655 5.24503 6.83026 5.43171 6.70173C5.68265 6.52882 5.93818 6.36204 6.19678 6.19831C6.51428 5.9971 6.78053 6.02005 6.93048 6.2664C7.12634 6.58926 6.94272 6.79201 6.68719 6.95956C6.14552 7.31532 5.60614 7.67567 5.05758 8.02071C4.62226 8.29537 4.27951 8.10717 4.27033 7.58462C4.25503 6.90677 4.26421 6.23197 4.26421 5.55718Z" fill="#4F46E5"/>
</g>
<defs>
<clipPath id="clip0_955_95">
<rect width="15" height="10.1074" fill="white" transform="translate(0.5 0.5)"/>
</clipPath>
</defs>
</svg>
