<svg width="26" height="18" viewBox="0 0 26 18" fill="none" xmlns="http://www.w3.org/2000/svg">
<g clip-path="url(#clip0_929_994)">
<path d="M9.75612 17.3405C7.03587 17.3405 4.31774 17.3405 1.60173 17.3405C1.34671 17.3405 1.09168 17.3839 0.85961 17.2283C0.739833 17.1575 0.643259 17.0534 0.58167 16.9286C0.520081 16.8038 0.496141 16.6638 0.512777 16.5257C0.54338 16.2222 0.700221 15.9914 0.996049 15.9213C1.26451 15.8632 1.53877 15.8363 1.8134 15.841C6.80422 15.841 11.795 15.8269 16.7846 15.8524C17.4221 15.8524 17.6376 15.6841 17.5968 15.0338C17.5395 14.1412 17.5815 13.2486 17.5828 12.3561C17.5828 11.044 17.9819 10.8042 19.1754 11.4023C20.5985 12.1151 22.024 12.8228 23.4343 13.5598C23.8946 13.8008 24.0018 13.6962 24.0005 13.2066C23.9865 10.3605 23.9814 7.51571 24.0005 4.66964C24.0005 4.03973 23.8016 4.08181 23.3527 4.31516C21.9029 5.06875 20.4404 5.79812 18.9791 6.52749C18.0355 6.99801 17.5841 6.70983 17.5764 5.64638C17.5764 4.69004 17.5395 3.7337 17.5879 2.77991C17.6185 2.17423 17.44 1.98551 16.8228 1.98934C12.7884 2.01612 8.7526 2.00209 4.71812 2.00209C4.03849 2.00209 3.35757 2.03142 2.67793 1.99316C2.14238 1.96256 1.99192 2.16275 1.99447 2.68428C2.01359 6.25461 2.00467 9.82495 2.00467 13.3864C2.00467 13.6414 2.01232 13.8964 2.00467 14.1514C1.98172 14.7724 1.69099 15.1396 1.2396 15.1345C0.788205 15.1294 0.506402 14.7775 0.505127 14.1425C0.505127 11.2106 0.505127 8.27993 0.505127 5.35055C0.505127 4.05503 0.505127 2.75951 0.505127 1.46399C0.505127 0.735897 0.73465 0.501275 1.45127 0.5C7.01589 0.5 12.5797 0.5 18.1426 0.5C18.8056 0.5 19.0747 0.75502 19.09 1.41681C19.1121 2.32979 19.1121 3.24278 19.09 4.15577C19.0798 4.63139 19.1754 4.764 19.6485 4.51663C21.0945 3.75156 22.5571 3.03111 24.0158 2.29537C25.0461 1.77639 25.4962 2.04034 25.4975 3.17392C25.4975 7.01713 25.4975 10.8608 25.4975 14.7048C25.4975 15.7657 25.041 16.0488 24.0948 15.5745C22.6348 14.8425 21.1723 14.1157 19.725 13.357C19.2558 13.1109 19.0619 13.1122 19.0875 13.7204C19.1232 14.548 19.1002 15.3781 19.0951 16.2056C19.0887 17.1161 18.8707 17.3367 17.9743 17.338L9.75612 17.3405Z" fill="#415B6A"/>
<path d="M6.77359 8.92847C6.77359 7.82337 6.77359 6.72039 6.77359 5.61954C6.77359 5.24593 6.82842 4.90547 7.19566 4.69125C7.58457 4.46301 7.88805 4.6683 8.19025 4.86594C9.85811 5.9549 11.5238 7.04682 13.1874 8.14173C13.7663 8.52426 13.9028 8.92592 13.6172 9.34161C13.3315 9.7573 12.9299 9.77643 12.342 9.38879C11.1524 8.61352 9.96522 7.83697 8.78446 7.04895C8.44782 6.82325 8.27441 6.78117 8.28971 7.29122C8.31139 8.3942 8.30501 9.49718 8.28971 10.6065C8.28971 11.0107 8.4083 11.0503 8.71943 10.8361C9.13767 10.5479 9.56356 10.2699 9.99455 9.99702C10.5237 9.66167 10.9675 9.69992 11.2174 10.1105C11.5438 10.6486 11.2378 10.9865 10.8119 11.2658C9.90911 11.8587 9.01015 12.4593 8.09589 13.0344C7.37035 13.4921 6.7991 13.1784 6.7838 12.3075C6.75829 11.1778 6.77359 10.0531 6.77359 8.92847Z" fill="#4F46E5"/>
</g>
<defs>
<clipPath id="clip0_929_994">
<rect width="25" height="16.8456" fill="white" transform="translate(0.5 0.5)"/>
</clipPath>
</defs>
</svg>
