<svg width="25" height="24" viewBox="0 0 25 24" fill="none" xmlns="http://www.w3.org/2000/svg">
<g clip-path="url(#clip0_920_422)">
<path d="M8.27414 23.0052C7.83299 22.6994 7.30436 22.4662 6.9789 22.0645C6.69672 21.7212 6.5481 21.1963 6.51612 20.7392C6.44839 19.776 6.48319 18.8043 6.49824 17.8374C6.53305 15.6824 7.50847 14.0927 9.40007 13.0637C9.45368 13.0345 9.50447 13.0007 9.60136 12.9414C8.41053 11.855 7.83487 10.5278 8.01923 8.93248C8.13414 7.79963 8.69239 6.75819 9.5722 6.03536C11.3716 4.53036 14.1747 4.69403 15.7803 6.38433C17.1978 7.87522 17.7199 10.7639 15.4812 12.8615C16.0775 13.3816 16.7379 13.851 17.2684 14.4408C18.1055 15.3814 18.4959 16.5214 18.4912 17.7903C18.4855 18.731 18.4912 19.6631 18.4912 20.6C18.4912 21.7344 17.939 22.5123 16.8686 22.9092C16.8141 22.9358 16.7622 22.9673 16.7134 23.0033L8.27414 23.0052ZM12.475 21.5067C13.6771 21.5067 14.8792 21.5114 16.0813 21.5067C16.7134 21.5067 16.9815 21.25 16.9862 20.6376C16.9956 19.6547 17.0097 18.6708 16.9862 17.6878C16.9316 15.8066 15.6693 14.3448 13.8144 14.0899C13.0254 13.9862 12.2273 13.9698 11.4346 14.041C9.62676 14.1924 8.30048 15.4077 8.08037 17.1959C7.94492 18.2879 8.00983 19.4063 7.99854 20.5134C7.99101 21.2744 8.23557 21.5067 9.01347 21.5077C10.1673 21.5089 11.3221 21.5086 12.4778 21.5067H12.475ZM12.5004 12.5097C13.288 12.4962 14.0396 12.1775 14.5968 11.6207C15.1541 11.064 15.4735 10.3127 15.4878 9.52507C15.4962 7.89309 14.1116 6.50755 12.4778 6.51508C10.8439 6.5226 9.46779 7.91849 9.49131 9.54577C9.51482 11.173 10.8938 12.5172 12.5069 12.5097H12.5004Z" fill="#4F46E5"/>
<path d="M0.5 12.5104C0.820753 11.7579 1.07566 10.9697 1.47919 10.2661C1.9495 9.44021 2.71423 8.87584 3.62005 8.46196C2.9221 7.80353 2.40476 7.08113 2.1555 6.18283C1.86425 5.15266 1.95324 4.0521 2.40621 3.08209C2.85917 2.11209 3.6459 1.33736 4.62275 0.899353C6.64886 -0.0017637 9.17631 0.723457 10.3333 2.54168C10.4418 2.69394 10.5253 2.86255 10.5807 3.04115C10.6663 3.39765 10.6042 3.73815 10.2674 3.94697C9.95891 4.1351 9.44627 4.00999 9.21488 3.70617C9.102 3.55755 9.01358 3.39012 8.90071 3.24151C8.0739 2.15226 6.79559 1.75532 5.53139 2.19177C4.94501 2.3946 4.43533 2.77309 4.07164 3.27579C3.70795 3.7785 3.50791 4.38101 3.49871 5.00141C3.50045 5.64526 3.70339 6.27247 4.07916 6.79531C4.45492 7.31814 4.98471 7.71044 5.59442 7.91734C5.68378 7.9465 5.77219 7.97566 5.86249 7.99824C6.39489 8.13557 6.57078 8.34344 6.52093 8.78177C6.47108 9.22011 6.18419 9.48348 5.69977 9.50982C4.44403 9.57942 3.41123 10.0685 2.67284 11.1089C2.23977 11.7264 2.00576 12.4616 2.00218 13.2159C1.98336 14.1828 1.99089 15.1507 2.00218 16.1186C2.00782 16.7441 2.26555 16.9934 2.8873 17.0066C3.08954 17.0113 3.29271 17.0009 3.49589 17.0066C3.98313 17.0254 4.25497 17.3048 4.24839 17.7685C4.24086 18.2078 3.9709 18.474 3.51093 18.5012C2.58066 18.5577 1.67954 18.4965 1.05027 17.6838C0.826397 17.3951 0.68248 17.0442 0.50188 16.7225L0.5 12.5104Z" fill="#415B6A"/>
<path d="M21.3837 8.45884C22.7005 9.0947 23.6412 10.0579 24.1218 11.4143C24.3218 12.0016 24.4389 12.6138 24.4699 13.2334C24.5253 14.2286 24.4896 15.2304 24.483 16.2284C24.4838 16.5291 24.4248 16.827 24.3096 17.1048C24.1944 17.3826 24.0252 17.6348 23.8118 17.8467C23.5984 18.0586 23.3451 18.226 23.0665 18.3393C22.7879 18.4526 22.4896 18.5094 22.1888 18.5066C21.9556 18.5066 21.7185 18.5132 21.4871 18.5066C21.0027 18.4887 20.7346 18.2056 20.7412 17.74C20.7506 17.2988 21.0159 17.0373 21.4815 17.0138C21.5596 17.0138 21.6376 17.0138 21.7157 17.0138C22.8604 17.0072 22.9931 16.8802 22.9865 15.7129C22.9808 14.7309 23.0486 13.7376 22.9197 12.7697C22.6639 10.8424 21.2821 9.63556 19.3453 9.52456C18.9625 9.50293 18.6728 9.36748 18.5195 9.02509C18.3078 8.55008 18.543 8.15407 19.0697 8.01392C20.364 7.66871 21.1786 6.86072 21.4307 5.52597C21.5429 4.89087 21.4454 4.23651 21.1531 3.66164C20.8607 3.08678 20.3893 2.6226 19.81 2.33914C19.2287 2.04142 18.5646 1.94645 17.9231 2.06932C17.2817 2.1922 16.6996 2.52586 16.2695 3.01733C16.1068 3.20546 15.9807 3.42368 15.8265 3.61839C15.5509 3.96548 15.0213 4.12727 14.7466 3.95702C14.4052 3.74632 14.3008 3.16501 14.5303 2.74455C15.358 1.22544 17.3258 0.279178 19.1055 0.544434C21.0432 0.833205 22.519 2.18112 22.8849 4.00593C23.2066 5.60749 22.7974 6.99585 21.6574 8.17101C21.5727 8.25848 21.49 8.34784 21.3837 8.45884Z" fill="#415B6A"/>
</g>
<defs>
<clipPath id="clip0_920_422">
<rect width="24" height="22.5054" fill="white" transform="translate(0.5 0.5)"/>
</clipPath>
</defs>
</svg>
