<svg width="24" height="24" viewBox="0 0 24 24" fill="none" xmlns="http://www.w3.org/2000/svg">
<g clip-path="url(#clip0_933_1915)">
<path d="M10.8617 6.95683C10.8617 8.15028 10.8819 9.34663 10.8617 10.5401C10.824 12.2376 9.97817 13.1095 8.29807 13.1471C6.52817 13.179 4.75827 13.1848 2.98837 13.1471C1.4618 13.1124 0.56381 12.2434 0.540637 10.7371C0.49622 8.15704 0.49622 5.57605 0.540637 2.9941C0.56381 1.46752 1.44152 0.584036 2.95071 0.546379C4.76696 0.500031 6.589 0.502928 8.40525 0.546379C9.98396 0.584036 10.8269 1.47623 10.8646 3.09839C10.8848 4.37585 10.8617 5.66489 10.8617 6.95683ZM8.46318 10.7892V2.93038H2.89278V10.7892H8.46318Z" fill="#415B6A"/>
<path d="M23.5028 17.2517C23.5028 18.4973 23.5347 19.74 23.5028 20.9827C23.4536 22.5759 22.5875 23.4391 20.9798 23.471C19.2109 23.5057 17.44 23.5057 15.6672 23.471C14.0711 23.4362 13.1992 22.5585 13.1789 20.9508C13.1441 18.4171 13.1441 15.8835 13.1789 13.3498C13.2021 11.7537 14.0885 10.8934 15.6991 10.8615C17.468 10.8268 19.2379 10.8268 21.0088 10.8615C22.6048 10.8963 23.4623 11.774 23.5028 13.3817C23.5318 14.6707 23.5057 15.9627 23.5028 17.2517ZM21.1188 21.1565V13.2484H15.5716V21.1565H21.1188Z" fill="#415B6A"/>
<path d="M18.2887 8.55303C17.3791 8.55303 16.4696 8.5849 15.56 8.55303C14.1116 8.4893 13.2426 7.64346 13.176 6.23565C13.1267 5.13779 13.1296 4.03705 13.176 2.93919C13.2339 1.49083 14.0856 0.601531 15.5108 0.560976C17.3733 0.508835 19.2417 0.511732 21.1072 0.560976C22.5556 0.595737 23.4246 1.46765 23.4941 2.87836C23.5463 3.97622 23.5405 5.07697 23.4941 6.17483C23.4333 7.67244 22.5498 8.51249 21.0174 8.56463C20.1079 8.57911 19.1983 8.55303 18.2887 8.55303ZM21.0841 6.23565V2.91022H15.5803V6.22987L21.0841 6.23565Z" fill="#415B6A"/>
<path d="M5.56046 23.4771C4.69144 23.4771 3.82243 23.506 2.97658 23.4771C1.45291 23.4162 0.586786 22.5704 0.528851 21.0583C0.488297 20.0097 0.491194 18.9553 0.528851 17.9067C0.580992 16.383 1.43553 15.5024 2.94762 15.4647C4.76386 15.4213 6.5859 15.4213 8.40215 15.4647C9.92583 15.4995 10.7919 16.3685 10.8499 17.8806C10.8933 18.9292 10.8904 19.9836 10.8499 21.0322C10.7919 22.5559 9.93741 23.4162 8.42822 23.48C7.4752 23.5089 6.51638 23.4771 5.56046 23.4771ZM8.49484 17.8226H2.91286V21.0786H8.49484V17.8226Z" fill="#4F46E5"/>
</g>
<defs>
<clipPath id="clip0_933_1915">
<rect width="23.029" height="23" fill="white" transform="translate(0.5 0.5)"/>
</clipPath>
</defs>
</svg>
