<svg width="26" height="26" viewBox="0 0 26 26" fill="none" xmlns="http://www.w3.org/2000/svg">
<path d="M13 15.5C14.3807 15.5 15.5 14.3807 15.5 13C15.5 11.6193 14.3807 10.5 13 10.5C11.6193 10.5 10.5 11.6193 10.5 13C10.5 14.3807 11.6193 15.5 13 15.5Z" stroke="#4F46E5" stroke-width="1.5" stroke-linecap="round" stroke-linejoin="round"/>
<path d="M20.0636 15.8636C19.9366 16.1515 19.8987 16.4709 19.9548 16.7806C20.011 17.0902 20.1586 17.3759 20.3786 17.6009L20.4359 17.6582C20.6134 17.8355 20.7542 18.046 20.8503 18.2778C20.9464 18.5096 20.9958 18.758 20.9958 19.0089C20.9958 19.2597 20.9464 19.5082 20.8503 19.7399C20.7542 19.9717 20.6134 20.1822 20.4359 20.3595C20.2586 20.537 20.0481 20.6779 19.8163 20.7739C19.5845 20.87 19.3361 20.9195 19.0852 20.9195C18.8343 20.9195 18.5859 20.87 18.3542 20.7739C18.1224 20.6779 17.9118 20.537 17.7345 20.3595L17.6773 20.3023C17.4523 20.0822 17.1666 19.9346 16.8569 19.8785C16.5473 19.8223 16.2279 19.8602 15.94 19.9873C15.6577 20.1083 15.4169 20.3092 15.2473 20.5653C15.0777 20.8214 14.9867 21.1215 14.9855 21.4286V21.5909C14.9855 22.0972 14.7843 22.5828 14.4263 22.9408C14.0683 23.2989 13.5827 23.5 13.0764 23.5C12.57 23.5 12.0845 23.2989 11.7264 22.9408C11.3684 22.5828 11.1673 22.0972 11.1673 21.5909V21.505C11.1599 21.1891 11.0576 20.8826 10.8738 20.6256C10.6899 20.3685 10.433 20.1727 10.1364 20.0636C9.84846 19.9366 9.52909 19.8987 9.21944 19.9548C8.90979 20.011 8.62406 20.1586 8.39909 20.3786L8.34182 20.4359C8.16451 20.6134 7.95396 20.7542 7.7222 20.8503C7.49044 20.9464 7.24202 20.9958 6.99114 20.9958C6.74025 20.9958 6.49183 20.9464 6.26007 20.8503C6.02831 20.7542 5.81776 20.6134 5.64045 20.4359C5.46295 20.2586 5.32214 20.0481 5.22607 19.8163C5.12999 19.5845 5.08054 19.3361 5.08054 19.0852C5.08054 18.8343 5.12999 18.5859 5.22607 18.3542C5.32214 18.1224 5.46295 17.9118 5.64045 17.7345L5.69773 17.6773C5.91779 17.4523 6.0654 17.1666 6.12155 16.8569C6.17769 16.5473 6.13979 16.2279 6.01273 15.94C5.89173 15.6577 5.69081 15.4169 5.43472 15.2473C5.17862 15.0777 4.87852 14.9867 4.57136 14.9855H4.40909C3.90277 14.9855 3.41718 14.7843 3.05916 14.4263C2.70114 14.0683 2.5 13.5827 2.5 13.0764C2.5 12.57 2.70114 12.0845 3.05916 11.7264C3.41718 11.3684 3.90277 11.1673 4.40909 11.1673H4.495C4.81095 11.1599 5.11737 11.0576 5.37442 10.8738C5.63148 10.6899 5.82727 10.433 5.93636 10.1364C6.06343 9.84846 6.10133 9.52909 6.04519 9.21944C5.98904 8.90979 5.84142 8.62406 5.62136 8.39909L5.56409 8.34182C5.38659 8.16451 5.24578 7.95396 5.1497 7.7222C5.05363 7.49044 5.00418 7.24202 5.00418 6.99114C5.00418 6.74025 5.05363 6.49183 5.1497 6.26007C5.24578 6.02831 5.38659 5.81776 5.56409 5.64045C5.74139 5.46295 5.95194 5.32214 6.1837 5.22607C6.41546 5.12999 6.66389 5.08054 6.91477 5.08054C7.16566 5.08054 7.41408 5.12999 7.64584 5.22607C7.8776 5.32214 8.08815 5.46295 8.26545 5.64045L8.32273 5.69773C8.54769 5.91779 8.83342 6.0654 9.14307 6.12155C9.45272 6.17769 9.77209 6.13979 10.06 6.01273H10.1364C10.4187 5.89173 10.6595 5.69081 10.8291 5.43472C10.9987 5.17862 11.0897 4.87852 11.0909 4.57136V4.40909C11.0909 3.90277 11.292 3.41718 11.6501 3.05916C12.0081 2.70114 12.4937 2.5 13 2.5C13.5063 2.5 13.9919 2.70114 14.3499 3.05916C14.708 3.41718 14.9091 3.90277 14.9091 4.40909V4.495C14.9103 4.80216 15.0013 5.10226 15.1709 5.35835C15.3405 5.61445 15.5813 5.81536 15.8636 5.93636C16.1515 6.06343 16.4709 6.10133 16.7806 6.04519C17.0902 5.98904 17.3759 5.84142 17.6009 5.62136L17.6582 5.56409C17.8355 5.38659 18.046 5.24578 18.2778 5.1497C18.5096 5.05363 18.758 5.00418 19.0089 5.00418C19.2597 5.00418 19.5082 5.05363 19.7399 5.1497C19.9717 5.24578 20.1822 5.38659 20.3595 5.56409C20.537 5.74139 20.6779 5.95194 20.7739 6.1837C20.87 6.41546 20.9195 6.66389 20.9195 6.91477C20.9195 7.16566 20.87 7.41408 20.7739 7.64584C20.6779 7.8776 20.537 8.08815 20.3595 8.26545L20.3023 8.32273C20.0822 8.54769 19.9346 8.83342 19.8785 9.14307C19.8223 9.45272 19.8602 9.77209 19.9873 10.06V10.1364C20.1083 10.4187 20.3092 10.6595 20.5653 10.8291C20.8214 10.9987 21.1215 11.0897 21.4286 11.0909H21.5909C22.0972 11.0909 22.5828 11.292 22.9408 11.6501C23.2989 12.0081 23.5 12.4937 23.5 13C23.5 13.5063 23.2989 13.9919 22.9408 14.3499C22.5828 14.708 22.0972 14.9091 21.5909 14.9091H21.505C21.1978 14.9103 20.8977 15.0013 20.6416 15.1709C20.3856 15.3405 20.1846 15.5813 20.0636 15.8636V15.8636Z" stroke="#415B6A" stroke-width="1.5" stroke-linecap="round" stroke-linejoin="round"/>
</svg>
