<svg width="26" height="24" viewBox="0 0 26 24" fill="none" xmlns="http://www.w3.org/2000/svg">
<g clip-path="url(#clip0_920_413)">
<path d="M13.0468 0.500362C15.533 0.534287 17.9849 0.777067 20.2825 1.84678C23.3658 3.28118 25.0268 5.7482 25.4092 9.16194C25.5811 10.7077 25.5322 12.2269 25.0508 13.7048C24.313 15.9672 22.6989 17.3793 20.6107 18.3016C18.6986 19.1498 16.6511 19.5039 14.6431 19.9979C13.8095 20.2099 12.9759 20.4283 12.2038 20.8461C11.3618 21.3072 11.1211 21.7716 11.217 22.7332C11.241 22.977 11.2899 23.2314 11.1836 23.4636C11.0211 23.8166 10.7314 24.0085 10.35 23.9725C9.92177 23.9311 9.66856 23.6544 9.5779 23.2304C9.23821 21.6475 9.8655 20.246 11.267 19.4275C12.3757 18.7798 13.6042 18.4914 14.8297 18.1946C16.5386 17.7811 18.2683 17.4419 19.9011 16.7453C23.1553 15.3607 24.0515 12.864 23.7847 9.6475C23.6711 8.282 23.3335 6.97905 22.5551 5.83089C21.4444 4.19929 19.8532 3.28648 18.0088 2.81577C14.466 1.91675 10.9127 1.87752 7.41989 3.05007C4.69294 3.96605 2.92152 5.80651 2.33695 8.7665C1.5992 12.5068 3.18827 15.6247 6.70299 17.1153C7.35615 17.3892 8.02835 17.6135 8.71407 17.7864C9.23508 17.92 9.49558 18.3419 9.39346 18.801C9.28197 19.3035 8.86204 19.5834 8.32227 19.4445C6.19344 18.9006 4.24487 18.008 2.6954 16.3594C0.914597 14.4744 0.325859 12.1728 0.542598 9.61675C0.694732 7.81446 1.19907 6.13622 2.2911 4.67636C3.69573 2.79881 5.61929 1.75348 7.80648 1.14494C9.52059 0.668927 11.2722 0.490821 13.0468 0.500362Z" fill="#415B6A"/>
<path d="M13.0188 8.98321C11.4245 8.98321 9.83025 8.98321 8.23597 8.98321C7.55033 8.98321 7.15644 8.65774 7.17312 8.11281C7.18875 7.58273 7.56387 7.28906 8.22972 7.28906C11.4169 7.28906 14.6048 7.28906 17.7933 7.28906C18.4498 7.28906 18.8291 7.60181 18.8353 8.13189C18.8416 8.66198 18.4592 8.98003 17.8048 8.98003C16.2077 8.98498 14.6124 8.98604 13.0188 8.98321Z" fill="#4F46E5"/>
<path d="M10.5032 13.2206C9.74152 13.2206 8.9798 13.2206 8.21809 13.2206C7.5585 13.2206 7.18129 12.9142 7.17608 12.3852C7.17087 11.8562 7.54808 11.5265 8.19517 11.5254C9.73596 11.5254 11.2771 11.5254 12.8186 11.5254C13.4657 11.5254 13.8471 11.853 13.8377 12.3862C13.8283 12.9195 13.4511 13.2174 12.7957 13.2195C12.0267 13.2227 11.267 13.2206 10.5032 13.2206Z" fill="#4F46E5"/>
</g>
<defs>
<clipPath id="clip0_920_413">
<rect width="25" height="23.4848" fill="white" transform="translate(0.5 0.5)"/>
</clipPath>
</defs>
</svg>
