<svg width="13" height="13" viewBox="0 0 13 13" fill="none" xmlns="http://www.w3.org/2000/svg">
<path d="M12.1251 6.99375C12.0267 8.05763 11.6275 9.0715 10.974 9.91674C10.3205 10.762 9.43974 11.4036 8.43487 11.7666C7.43001 12.1296 6.34255 12.1988 5.29975 11.9663C4.25695 11.7338 3.30193 11.2091 2.54645 10.4536C1.79097 9.69813 1.26627 8.74311 1.03375 7.70031C0.801233 6.65751 0.870508 5.57005 1.23347 4.56519C1.59644 3.56032 2.23808 2.6796 3.08332 2.0261C3.92856 1.37259 4.94243 0.973316 6.00631 0.875C5.38344 1.71767 5.08372 2.75591 5.16164 3.80088C5.23957 4.84586 5.68997 5.82816 6.43094 6.56912C7.1719 7.31009 8.1542 7.76049 9.19918 7.83842C10.2442 7.91634 11.2824 7.61662 12.1251 6.99375Z" stroke="#415B6A" stroke-linecap="round" stroke-linejoin="round"/>
</svg>
