<svg width="10" height="10" viewBox="0 0 10 10" fill="none" xmlns="http://www.w3.org/2000/svg">
<g clip-path="url(#clip0_945_1274)">
<path d="M9.48384 10.0001C9.24946 9.91469 9.15728 9.74489 9.15259 9.49776C9.12655 8.12458 8.1242 6.89359 6.78618 6.5837C5.03592 6.17745 3.3078 7.35349 3.03619 9.13578C3.01722 9.2476 3.0085 9.36092 3.01014 9.47432C3.01822 9.72719 2.92395 9.90791 2.6802 9.99776H2.50468C2.23436 9.87979 2.15988 9.77927 2.17525 9.48213C2.25337 7.97172 2.96822 6.85531 4.27681 6.11417C4.38853 6.05088 4.50832 6.00166 4.62525 5.94515C3.64452 5.05974 3.72577 3.5475 4.62108 2.73057C5.44452 1.97901 6.72551 1.98109 7.54816 2.73682C8.42811 3.54411 8.52394 5.04672 7.55571 5.92901C7.81613 6.08526 8.09816 6.2225 8.34712 6.40479C9.30233 7.10401 9.84946 8.04541 9.97342 9.22953C9.97655 9.25791 9.98488 9.28604 9.99087 9.31416V9.66573C9.96806 9.74482 9.92571 9.8169 9.86773 9.87533C9.80976 9.93377 9.73801 9.97667 9.6591 10.0001H9.48384ZM6.07967 5.66573C6.343 5.66598 6.6005 5.58818 6.81963 5.44216C7.03876 5.29613 7.20969 5.08843 7.31083 4.8453C7.41197 4.60217 7.43878 4.33452 7.38786 4.07616C7.33695 3.8178 7.21061 3.58032 7.02479 3.39374C6.83897 3.20716 6.60201 3.07984 6.34387 3.02787C6.08572 2.97589 5.81796 3.0016 5.57441 3.10174C5.33087 3.20189 5.12247 3.37197 4.97555 3.5905C4.82862 3.80903 4.74977 4.0662 4.74894 4.32953C4.74832 4.68315 4.88815 5.02255 5.13769 5.27312C5.38722 5.52368 5.72605 5.6649 6.07967 5.66573Z" fill="#415B6A"/>
<path d="M4.12245 0C4.30474 0.0453125 4.4925 0.0729168 4.6662 0.139323C5.32141 0.390365 5.75838 0.857031 5.98156 1.52396C5.98544 1.53619 5.98866 1.54862 5.9912 1.5612C5.9912 1.56432 5.9912 1.56771 5.9912 1.5638L5.17089 1.71328C5.03312 1.36302 4.78807 1.09349 4.42713 0.9375C4.1804 0.831504 3.90673 0.805193 3.64432 0.862239C3.12349 0.968229 2.69771 1.41354 2.60604 1.94297C2.50187 2.54974 2.76958 3.01927 3.45838 3.42578C3.35868 3.71081 3.30309 4.00939 3.29354 4.3112C3.29354 4.33333 3.24614 4.36641 3.21541 4.37396C2.6041 4.52045 2.05262 4.85138 1.63573 5.32187C1.12765 5.89115 0.857861 6.55885 0.843017 7.32708C0.83859 7.55234 0.743538 7.70287 0.568277 7.76745C0.504742 7.79112 0.436368 7.79885 0.369153 7.78994C0.301938 7.78103 0.237937 7.75575 0.182765 7.71634C0.127593 7.67693 0.0829371 7.62458 0.0527145 7.56389C0.0224918 7.50319 0.00762653 7.43601 0.00942279 7.36823C0.00754686 6.6251 0.222687 5.89759 0.628434 5.275C1.04658 4.61759 1.65124 4.09979 2.36515 3.78776C2.38833 3.7776 2.41021 3.76458 2.43494 3.75182C2.34823 3.64922 2.25969 3.55495 2.1826 3.45182C1.19927 2.13542 2.02192 0.213021 3.64901 0.0179688C3.67079 0.0136249 3.69221 0.00761765 3.71307 0H4.12245Z" fill="#415B6A"/>
<path d="M9.99055 1.34753C9.96234 1.40475 9.93015 1.45992 9.8942 1.51263C9.85768 1.56066 9.81035 1.59942 9.75606 1.62575C9.70176 1.65208 9.64203 1.66525 9.5817 1.66419C9.44576 1.66419 9.30982 1.66419 9.1567 1.66419C9.1567 1.81419 9.16009 1.95586 9.1567 2.09753C9.15461 2.2037 9.11164 2.30497 9.03672 2.38024C8.96181 2.45551 8.86074 2.49896 8.75458 2.50155C8.64841 2.50413 8.54535 2.46565 8.46686 2.39412C8.38837 2.32259 8.34052 2.22352 8.33326 2.11758C8.32597 1.97201 8.33326 1.82591 8.33326 1.66341C8.17701 1.66341 8.03301 1.6681 7.88847 1.66341C7.78305 1.65732 7.68396 1.61111 7.61154 1.53426C7.53912 1.45742 7.49886 1.35576 7.49902 1.25017C7.49919 1.14457 7.53977 1.04304 7.61244 0.966424C7.6851 0.889805 7.78434 0.843907 7.88978 0.838151C8.03196 0.832683 8.17415 0.838151 8.33118 0.838151C8.33118 0.731381 8.33847 0.634505 8.33118 0.539193C8.30748 0.280859 8.4041 0.0983073 8.64941 0.00195312H8.8442C9.09446 0.0988281 9.18509 0.288412 9.16243 0.546225C9.15436 0.638412 9.16243 0.732162 9.16243 0.83737H9.5791C9.64091 0.835336 9.70231 0.848128 9.75817 0.874676C9.81404 0.901225 9.86273 0.940759 9.90019 0.989974C9.93606 1.04245 9.96809 1.09746 9.99602 1.15456L9.99055 1.34753Z" fill="#4F46E5"/>
<path d="M9.65918 10.0006C9.73792 9.97735 9.80958 9.93469 9.8676 9.87658C9.92562 9.81847 9.96816 9.74675 9.99133 9.66797V10.0006H9.65918Z" fill="white"/>
</g>
<defs>
<clipPath id="clip0_945_1274">
<rect width="9.98073" height="10" fill="white" transform="translate(0.00976562)"/>
</clipPath>
</defs>
</svg>
