<svg width="10" height="8" viewBox="0 0 10 8" fill="none" xmlns="http://www.w3.org/2000/svg">
<g clip-path="url(#clip0_946_499)">
<path d="M7.3264 5.97785C7.31358 6.13506 7.31755 6.27883 7.28763 6.41467C7.24762 6.59685 7.14768 6.76035 7.00381 6.87905C6.85993 6.99775 6.68042 7.06479 6.49396 7.06946C4.81259 7.13193 3.13101 7.1941 1.44924 7.25597C1.26303 7.26299 1.07652 7.27398 0.890002 7.27581C0.384492 7.281 0.0151273 6.92354 0.00230641 6.4162C-0.00288301 6.21809 0.00230641 6.01936 0.00230641 5.82125C0.00230641 4.42479 0.00230641 3.02823 0.00230641 1.63156C0.00230641 1.16696 0.267577 0.825982 0.696162 0.738678C0.771057 0.725138 0.847282 0.720425 0.923275 0.724636C2.08753 0.766558 3.25169 0.809396 4.41575 0.85315C5.09678 0.878487 5.77782 0.905655 6.45885 0.92916C6.95765 0.94656 7.30595 1.29761 7.31358 1.79793C7.31358 1.86905 7.31358 1.94018 7.31358 2.0287C7.36273 2.00215 7.39539 1.98627 7.42683 1.96765C7.83802 1.7207 8.25103 1.47557 8.65916 1.22526C8.95343 1.04577 9.25442 1.0186 9.55754 1.1868C9.86586 1.35805 9.99925 1.63584 9.99925 1.98383C9.99925 3.33084 9.99925 4.67775 9.99925 6.02455C9.99925 6.51449 9.68789 6.86859 9.21504 6.91927C9.01876 6.94033 8.83988 6.88386 8.67198 6.78221C8.26192 6.53373 7.85114 6.28636 7.43965 6.04012C7.40302 6.01784 7.36456 5.9986 7.3264 5.97785ZM3.65993 1.55677C2.75799 1.5234 1.85615 1.49033 0.954411 1.45756C0.754466 1.45024 0.732793 1.47435 0.732793 1.67705V6.32584C0.732793 6.52518 0.755382 6.5496 0.957769 6.54197C2.78058 6.47481 4.60318 6.40694 6.42558 6.33836C6.55501 6.33347 6.58279 6.30142 6.58279 6.1552C6.58279 4.72008 6.58279 3.28536 6.58279 1.85104C6.58279 1.68987 6.55867 1.66636 6.39963 1.66026L3.65993 1.55677ZM9.26846 4.0016C9.26846 3.33796 9.26846 2.67463 9.26541 2.011C9.26541 1.94995 9.2416 1.8602 9.19886 1.83578C9.15613 1.81136 9.06852 1.83914 9.01571 1.86997C8.46909 2.19355 7.92461 2.52078 7.38226 2.85168C7.36404 2.86458 7.34878 2.88121 7.33752 2.90048C7.32625 2.91975 7.31923 2.94121 7.31694 2.96341C7.31307 3.6537 7.31307 4.34389 7.31694 5.03398C7.31868 5.05623 7.3252 5.07783 7.33605 5.09732C7.3469 5.11682 7.36183 5.13374 7.37982 5.14693C7.92216 5.47763 8.46665 5.80497 9.01326 6.12895C9.06607 6.15948 9.16009 6.19 9.19642 6.16589C9.2416 6.13536 9.26571 6.04378 9.26632 5.9806C9.27029 5.32093 9.26846 4.66126 9.26846 4.0016Z" fill="#415B6A"/>
<path d="M4.02386 4.3679C4.02386 4.63836 4.02386 4.89691 4.02386 5.15547C4.02596 5.21626 4.0198 5.27705 4.00554 5.33618C3.98187 5.41316 3.9327 5.4798 3.86612 5.52512C3.79955 5.57045 3.71953 5.59177 3.63923 5.58558C3.56045 5.58275 3.48495 5.55333 3.42503 5.50212C3.36511 5.4509 3.3243 5.3809 3.30924 5.30352C3.29664 5.21303 3.29184 5.12162 3.29489 5.03031C3.29276 4.81388 3.29489 4.59715 3.29489 4.3679H2.53388C2.24877 4.3679 2.07904 4.23175 2.07813 4.00159C2.07721 3.77142 2.24297 3.63528 2.52808 3.63528C2.77229 3.63528 3.0165 3.63456 3.26071 3.63314C3.27241 3.63006 3.28369 3.62555 3.29428 3.61971C3.29428 3.37825 3.29428 3.13129 3.29428 2.88495C3.29268 2.82777 3.29616 2.77057 3.30466 2.714C3.34007 2.52291 3.49637 2.40539 3.69143 2.4179C3.77996 2.42319 3.86324 2.46168 3.92463 2.52568C3.98603 2.58968 4.02103 2.67448 4.02264 2.76315C4.02844 3.00736 4.02477 3.25157 4.02508 3.49577V3.63528H4.26929C4.46709 3.63528 4.66612 3.63375 4.86332 3.63528C5.08341 3.63741 5.24917 3.79859 5.24642 4.00464C5.24368 4.21069 5.08189 4.36363 4.86821 4.36607C4.62827 4.36851 4.38834 4.36607 4.1484 4.36607L4.02386 4.3679Z" fill="#4F46E5"/>
</g>
<defs>
<clipPath id="clip0_946_499">
<rect width="10" height="6.5524" fill="white" transform="translate(0 0.723633)"/>
</clipPath>
</defs>
</svg>
