<svg width="10" height="10" viewBox="0 0 10 10" fill="none" xmlns="http://www.w3.org/2000/svg">
<g clip-path="url(#clip0_946_492)">
<path d="M8.75 4.79168C8.75143 5.34162 8.62294 5.88413 8.375 6.37501C8.08101 6.96324 7.62906 7.458 7.06977 7.80388C6.51048 8.14976 5.86593 8.33309 5.20833 8.33335C4.65839 8.33478 4.11588 8.20629 3.625 7.95835L1.25 8.75001L2.04167 6.37501C1.79372 5.88413 1.66523 5.34162 1.66667 4.79168C1.66692 4.13408 1.85025 3.48953 2.19613 2.93024C2.54201 2.37095 3.03677 1.919 3.625 1.62501C4.11588 1.37707 4.65839 1.24858 5.20833 1.25001H5.41667C6.28514 1.29793 7.10543 1.6645 7.72047 2.27954C8.33552 2.89458 8.70209 3.71487 8.75 4.58335V4.79168Z" stroke="#415B6A" stroke-width="0.75" stroke-linecap="round" stroke-linejoin="round"/>
<circle cx="9" cy="1" r="1" fill="#4F46E5"/>
</g>
<defs>
<clipPath id="clip0_946_492">
<rect width="10" height="10" fill="white"/>
</clipPath>
</defs>
</svg>
