<svg width="10" height="10" viewBox="0 0 10 10" fill="none" xmlns="http://www.w3.org/2000/svg">
<g clip-path="url(#clip0_946_537)">
<path d="M5.88317 5.88318C5.76873 6.00599 5.63073 6.1045 5.4774 6.17281C5.32407 6.24113 5.15855 6.27787 4.99071 6.28083C4.82287 6.28379 4.65615 6.25292 4.50051 6.19005C4.34486 6.12718 4.20347 6.03361 4.08477 5.91491C3.96607 5.79621 3.8725 5.65482 3.80963 5.49918C3.74676 5.34353 3.71589 5.17681 3.71885 5.00898C3.72181 4.84114 3.75855 4.67562 3.82687 4.52228C3.89519 4.36895 3.99369 4.23095 4.1165 4.11651M7.47484 7.47485C6.76258 8.01776 5.8953 8.31854 4.99984 8.33318C2.08317 8.33318 0.416504 4.99985 0.416504 4.99985C0.934791 4.03397 1.65364 3.1901 2.52484 2.52485L7.47484 7.47485ZM4.12484 1.76651C4.41164 1.69938 4.70528 1.66582 4.99984 1.66651C7.9165 1.66651 9.58317 4.99985 9.58317 4.99985C9.33024 5.47302 9.02861 5.91849 8.68317 6.32901L4.12484 1.76651Z" stroke="#415B6A" stroke-width="0.75" stroke-linecap="round" stroke-linejoin="round"/>
<path d="M0.416504 0.416504L9.58317 9.58317" stroke="#4F46E5" stroke-width="0.75" stroke-linecap="round" stroke-linejoin="round"/>
</g>
<defs>
<clipPath id="clip0_946_537">
<rect width="10" height="10" fill="white"/>
</clipPath>
</defs>
</svg>
