<svg width="18" height="16" viewBox="0 0 18 16" fill="none" xmlns="http://www.w3.org/2000/svg">
<path d="M15.6485 10.2806C15.3496 10.1489 15.0014 10.2848 14.8696 10.5829C13.8448 12.9085 11.5407 14.4111 8.99992 14.4111C6.02665 14.4111 3.5203 12.3766 2.79835 9.62663L3.16701 9.99252C3.3988 10.2219 3.77257 10.221 4.00259 9.98918C4.23241 9.75739 4.23103 9.38342 3.99944 9.1536L2.41414 7.58051C2.41119 7.57756 2.40745 7.57578 2.40449 7.57283C2.3781 7.54762 2.34975 7.52478 2.31902 7.50489C2.308 7.4978 2.29638 7.49268 2.28495 7.48638C2.26054 7.47279 2.23592 7.45999 2.20973 7.44975C2.19574 7.44443 2.18137 7.44089 2.16699 7.43655C2.14257 7.42927 2.11796 7.42277 2.09216 7.41863C2.07503 7.41588 2.05789 7.41469 2.04056 7.41351C2.02619 7.41233 2.0126 7.40918 1.99803 7.40918C1.98798 7.40918 1.97853 7.41174 1.96868 7.41213C1.96021 7.41253 1.95194 7.41095 1.94348 7.41174C1.93363 7.41272 1.92457 7.41627 1.91472 7.41765C1.8903 7.42119 1.86667 7.42592 1.84343 7.43222C1.82729 7.43655 1.81153 7.44128 1.79597 7.44699C1.77234 7.45566 1.74989 7.46609 1.72784 7.47751C1.71366 7.4848 1.69967 7.49169 1.68609 7.50016C1.66403 7.51395 1.64375 7.5299 1.62386 7.54624C1.61243 7.5557 1.60062 7.56416 1.58979 7.57441C1.56655 7.59666 1.54607 7.62147 1.52657 7.64727C1.52204 7.65337 1.51614 7.6581 1.51161 7.6644L1.50786 7.66972L0.242384 9.50197C0.0570717 9.77039 0.124225 10.1384 0.392839 10.324C0.495244 10.3947 0.612221 10.4285 0.728016 10.4285C0.915495 10.4285 1.10002 10.3395 1.21463 10.1735L1.58624 9.63549C2.33655 13.0383 5.37461 15.5927 8.99952 15.5927C12.0084 15.5927 14.7369 13.8134 15.9504 11.0595C16.0824 10.7609 15.9469 10.4122 15.6485 10.2806Z" fill="#415B6A"/>
<path d="M17.6066 5.67612C17.3382 5.49081 16.9701 5.55796 16.7846 5.82638L16.413 6.3644C15.6629 2.96162 12.6248 0.407227 8.99974 0.407227C5.99102 0.407227 3.26254 2.1867 2.04885 4.94039C1.9173 5.23893 2.05259 5.5877 2.35114 5.71925C2.64988 5.8508 2.99845 5.71551 3.13 5.41696C4.15503 3.0914 6.45913 1.58881 8.99974 1.58881C11.973 1.58881 14.4793 3.62351 15.2011 6.37346L14.8324 6.00756C14.6009 5.77774 14.2269 5.77912 13.9969 6.01071C13.767 6.2423 13.7686 6.61647 14.0002 6.84629L15.5855 8.41937C15.594 8.42784 15.6042 8.43395 15.6133 8.44202C15.6328 8.45915 15.6521 8.47668 15.6739 8.49125C15.6858 8.49913 15.6989 8.50445 15.7114 8.51154C15.7324 8.52355 15.7529 8.53615 15.7754 8.54541C15.7901 8.55152 15.8059 8.55467 15.821 8.55959C15.8423 8.56648 15.8632 8.57456 15.8854 8.57909C15.9234 8.58677 15.9624 8.5909 16.0018 8.5909C16.0199 8.5909 16.0383 8.59011 16.0562 8.58834C16.066 8.58736 16.0751 8.58381 16.0847 8.58243C16.1093 8.57889 16.1332 8.57416 16.1566 8.56766C16.1726 8.56333 16.1881 8.5588 16.2035 8.55309C16.2273 8.54443 16.25 8.53399 16.2722 8.52237C16.2862 8.51508 16.3 8.50839 16.3134 8.50012C16.3356 8.48613 16.3561 8.47018 16.3762 8.45364C16.3874 8.44438 16.3992 8.43611 16.4099 8.42587C16.4331 8.40362 16.4534 8.379 16.4729 8.3534C16.4776 8.3471 16.4835 8.34237 16.488 8.33588L17.7573 6.49811C17.9424 6.2295 17.875 5.86163 17.6066 5.67612Z" fill="#4F46E5"/>
</svg>
