<svg width="15" height="19" viewBox="0 0 15 19" fill="none" xmlns="http://www.w3.org/2000/svg">
<path d="M12.3612 18.1804H2.639C2.08646 18.1804 1.55656 17.961 1.16586 17.5703C0.775157 17.1796 0.555664 16.6496 0.555664 16.0971V4.63878L3.68066 0.819336H12.3612C12.9138 0.819336 13.4437 1.03883 13.8344 1.42953C14.2251 1.82023 14.4446 2.35013 14.4446 2.90267V16.0971C14.4446 16.6496 14.2251 17.1796 13.8344 17.5703C13.4437 17.961 12.9138 18.1804 12.3612 18.1804Z" fill="#599DEF"/>
<path d="M3.68066 4.13739C3.68066 4.27037 3.62784 4.3979 3.53381 4.49193C3.43978 4.58596 3.31225 4.63878 3.17927 4.63878H0.555664L3.68066 0.819336V4.13739Z" fill="#C2E1FF"/>
<path d="M10.2778 7.76367H4.72222C4.53046 7.76367 4.375 7.91913 4.375 8.11089C4.375 8.30266 4.53046 8.45812 4.72222 8.45812H10.2778C10.4695 8.45812 10.625 8.30266 10.625 8.11089C10.625 7.91913 10.4695 7.76367 10.2778 7.76367Z" fill="white"/>
<path d="M10.2778 9.5H4.72222C4.53046 9.5 4.375 9.65546 4.375 9.84722C4.375 10.039 4.53046 10.1944 4.72222 10.1944H10.2778C10.4695 10.1944 10.625 10.039 10.625 9.84722C10.625 9.65546 10.4695 9.5 10.2778 9.5Z" fill="white"/>
<path d="M10.2778 11.2358H4.72222C4.53046 11.2358 4.375 11.3913 4.375 11.5831C4.375 11.7748 4.53046 11.9303 4.72222 11.9303H10.2778C10.4695 11.9303 10.625 11.7748 10.625 11.5831C10.625 11.3913 10.4695 11.2358 10.2778 11.2358Z" fill="white"/>
<path d="M8.19444 12.9722H4.72222C4.53046 12.9722 4.375 13.1276 4.375 13.3194C4.375 13.5112 4.53046 13.6666 4.72222 13.6666H8.19444C8.38621 13.6666 8.54167 13.5112 8.54167 13.3194C8.54167 13.1276 8.38621 12.9722 8.19444 12.9722Z" fill="white"/>
</svg>
