<svg width="25" height="25" viewBox="0 0 25 25" fill="none" xmlns="http://www.w3.org/2000/svg">
<path d="M17.3612 21.1804H7.639C7.08646 21.1804 6.55656 20.961 6.16586 20.5703C5.77516 20.1796 5.55566 19.6496 5.55566 19.0971V7.63878L8.68066 3.81934H17.3612C17.9138 3.81934 18.4437 4.03883 18.8344 4.42953C19.2251 4.82023 19.4446 5.35013 19.4446 5.90267V19.0971C19.4446 19.6496 19.2251 20.1796 18.8344 20.5703C18.4437 20.961 17.9138 21.1804 17.3612 21.1804Z" fill="#7E95C4"/>
<path d="M8.68066 7.13739C8.68066 7.27037 8.62784 7.3979 8.53381 7.49193C8.43978 7.58596 8.31225 7.63878 8.17927 7.63878H5.55566L8.68066 3.81934V7.13739Z" fill="#B7CCEA"/>
<path d="M15.2778 10.7637H9.72222C9.53046 10.7637 9.375 10.9191 9.375 11.1109C9.375 11.3027 9.53046 11.4581 9.72222 11.4581H15.2778C15.4695 11.4581 15.625 11.3027 15.625 11.1109C15.625 10.9191 15.4695 10.7637 15.2778 10.7637Z" fill="white"/>
<path d="M15.2778 12.1528H9.72222C9.53046 12.1528 9.375 12.3083 9.375 12.5001C9.375 12.6918 9.53046 12.8473 9.72222 12.8473H15.2778C15.4695 12.8473 15.625 12.6918 15.625 12.5001C15.625 12.3083 15.4695 12.1528 15.2778 12.1528Z" fill="white"/>
<path d="M15.2778 13.5415H9.72222C9.53046 13.5415 9.375 13.697 9.375 13.8887C9.375 14.0805 9.53046 14.2359 9.72222 14.2359H15.2778C15.4695 14.2359 15.625 14.0805 15.625 13.8887C15.625 13.697 15.4695 13.5415 15.2778 13.5415Z" fill="white"/>
<path d="M13.8889 14.9307H9.72222C9.53046 14.9307 9.375 15.0861 9.375 15.2779C9.375 15.4697 9.53046 15.6251 9.72222 15.6251H13.8889C14.0807 15.6251 14.2361 15.4697 14.2361 15.2779C14.2361 15.0861 14.0807 14.9307 13.8889 14.9307Z" fill="white"/>
<path d="M11.8056 16.3193H9.72222C9.53046 16.3193 9.375 16.4748 9.375 16.6666C9.375 16.8583 9.53046 17.0138 9.72222 17.0138H11.8056C11.9973 17.0138 12.1528 16.8583 12.1528 16.6666C12.1528 16.4748 11.9973 16.3193 11.8056 16.3193Z" fill="white"/>
</svg>
