<svg width="25" height="25" viewBox="0 0 25 25" fill="none" xmlns="http://www.w3.org/2000/svg">
<path d="M17.3612 21.1804H7.639C7.08646 21.1804 6.55656 20.961 6.16586 20.5703C5.77516 20.1796 5.55566 19.6496 5.55566 19.0971V7.63878L8.68066 3.81934H17.3612C17.9138 3.81934 18.4437 4.03883 18.8344 4.42953C19.2251 4.82023 19.4446 5.35013 19.4446 5.90267V19.0971C19.4446 19.6496 19.2251 20.1796 18.8344 20.5703C18.4437 20.961 17.9138 21.1804 17.3612 21.1804Z" fill="#F25168"/>
<path d="M8.68066 7.13739C8.68066 7.27037 8.62784 7.3979 8.53381 7.49193C8.43978 7.58596 8.31225 7.63878 8.17927 7.63878H5.55566L8.68066 3.81934V7.13739Z" fill="#FF9FB6"/>
<path d="M15.3261 15.9724H9.673C9.50178 15.9723 9.33758 15.9043 9.2165 15.7832C9.09543 15.6621 9.02739 15.498 9.02734 15.3267V12.1042C9.02739 11.9329 9.09543 11.7687 9.2165 11.6477C9.33758 11.5266 9.50178 11.4585 9.673 11.4585H15.326C15.4972 11.4585 15.6615 11.5265 15.7826 11.6477C15.9037 11.7688 15.9718 11.933 15.9718 12.1043V15.3268C15.9717 15.498 15.9037 15.6622 15.7826 15.7833C15.6615 15.9043 15.4973 15.9723 15.3261 15.9724ZM10.1195 15.2779H14.8796C14.9851 15.2779 15.0863 15.236 15.1609 15.1615C15.2354 15.0869 15.2773 14.9857 15.2773 14.8802V12.5506C15.2773 12.4452 15.2354 12.344 15.1609 12.2694C15.0863 12.1948 14.9851 12.1529 14.8796 12.1529H10.1195C10.014 12.1529 9.91286 12.1948 9.83827 12.2694C9.76369 12.344 9.72179 12.4452 9.72179 12.5506V14.8803C9.7218 14.9857 9.7637 15.0869 9.83829 15.1615C9.91287 15.236 10.014 15.2779 10.1195 15.2779Z" fill="white"/>
<path d="M12.6461 11.8984C12.6135 11.8985 12.5813 11.8921 12.5512 11.8796C12.5211 11.8671 12.4938 11.8488 12.4708 11.8258L11.7267 11.0817C11.6816 11.035 11.6566 10.9723 11.6572 10.9073C11.6578 10.8424 11.6839 10.7802 11.7299 10.7343C11.7758 10.6883 11.838 10.6622 11.903 10.6616C11.9679 10.661 12.0306 10.686 12.0774 10.7311L12.8214 11.4752C12.8561 11.5099 12.8797 11.5541 12.8892 11.6022C12.8988 11.6503 12.8939 11.7001 12.8751 11.7454C12.8564 11.7908 12.8246 11.8295 12.7838 11.8567C12.743 11.884 12.695 11.8985 12.646 11.8985L12.6461 11.8984Z" fill="white"/>
<path d="M12.6463 11.8988C12.5973 11.8988 12.5494 11.8842 12.5086 11.857C12.4678 11.8297 12.4361 11.791 12.4173 11.7457C12.3985 11.7004 12.3936 11.6505 12.4032 11.6024C12.4128 11.5543 12.4364 11.5101 12.4711 11.4755L13.2152 10.7313C13.2617 10.6848 13.3247 10.6587 13.3905 10.6587C13.4563 10.6587 13.5194 10.6848 13.5659 10.7313C13.6124 10.7778 13.6385 10.8409 13.6385 10.9067C13.6385 10.9724 13.6124 11.0355 13.5659 11.082L12.8219 11.826C12.7989 11.8492 12.7715 11.8675 12.7414 11.88C12.7113 11.8925 12.679 11.8989 12.6463 11.8988Z" fill="white"/>
<path d="M11.1578 17.107C11.113 17.1071 11.0689 17.0948 11.0306 17.0716C10.9742 17.0377 10.9335 16.9829 10.9176 16.9191C10.9016 16.8552 10.9116 16.7877 10.9455 16.7313L11.6896 15.4913C11.7238 15.4356 11.7786 15.3957 11.842 15.3801C11.9055 15.3646 11.9725 15.3748 12.0285 15.4084C12.0845 15.442 12.125 15.4964 12.1412 15.5597C12.1574 15.623 12.1479 15.6901 12.1148 15.7465L11.3709 16.9864C11.3488 17.0232 11.3176 17.0537 11.2803 17.0748C11.2429 17.096 11.2007 17.107 11.1578 17.107Z" fill="white"/>
<path d="M14.1351 17.1071C14.0923 17.1071 14.0502 17.0961 14.0129 17.075C13.9756 17.0539 13.9444 17.0236 13.9223 16.9868L13.1783 15.7467C13.1448 15.6903 13.1351 15.6229 13.1511 15.5594C13.1672 15.4958 13.2077 15.4412 13.264 15.4074C13.3202 15.3737 13.3875 15.3636 13.4511 15.3793C13.5148 15.3951 13.5696 15.4354 13.6036 15.4915L14.3475 16.7316C14.3701 16.7692 14.3823 16.8121 14.3829 16.856C14.3835 16.8999 14.3724 16.9432 14.3508 16.9813C14.3292 17.0195 14.2978 17.0513 14.2599 17.0734C14.222 17.0955 14.1789 17.1071 14.135 17.1071H14.1351Z" fill="white"/>
<path d="M12.1942 12.8475H10.7289C10.7054 12.8487 10.6818 12.8451 10.6596 12.837C10.6375 12.8288 10.6172 12.8162 10.6001 12.8C10.583 12.7837 10.5693 12.7642 10.56 12.7425C10.5507 12.7208 10.5459 12.6975 10.5459 12.6739C10.5459 12.6502 10.5507 12.6269 10.56 12.6052C10.5693 12.5835 10.583 12.564 10.6001 12.5477C10.6172 12.5315 10.6375 12.5189 10.6596 12.5107C10.6818 12.5026 10.7054 12.499 10.7289 12.5002H12.1942C12.2178 12.499 12.2414 12.5026 12.2635 12.5107C12.2857 12.5189 12.3059 12.5315 12.3231 12.5477C12.3402 12.564 12.3538 12.5835 12.3631 12.6052C12.3725 12.6269 12.3773 12.6502 12.3773 12.6739C12.3773 12.6975 12.3725 12.7208 12.3631 12.7425C12.3538 12.7642 12.3402 12.7837 12.3231 12.8C12.3059 12.8162 12.2857 12.8288 12.2635 12.837C12.2414 12.8451 12.2178 12.8487 12.1942 12.8475Z" fill="white"/>
<path d="M14.5749 14.9304H13.0372C13.0128 14.9327 12.9882 14.93 12.965 14.9223C12.9418 14.9145 12.9204 14.9021 12.9023 14.8856C12.8841 14.8692 12.8697 14.8491 12.8598 14.8267C12.8498 14.8043 12.8447 14.7801 12.8447 14.7556C12.8447 14.7312 12.8498 14.7069 12.8598 14.6846C12.8697 14.6622 12.8841 14.6421 12.9023 14.6257C12.9204 14.6092 12.9418 14.5967 12.965 14.589C12.9882 14.5813 13.0128 14.5785 13.0372 14.5809H14.5749C14.5993 14.5785 14.6239 14.5813 14.6471 14.589C14.6703 14.5967 14.6917 14.6092 14.7098 14.6257C14.7279 14.6421 14.7424 14.6622 14.7523 14.6846C14.7622 14.7069 14.7674 14.7312 14.7674 14.7556C14.7674 14.7801 14.7622 14.8043 14.7523 14.8267C14.7424 14.8491 14.7279 14.8692 14.7098 14.8856C14.6917 14.9021 14.6703 14.9145 14.6471 14.9223C14.6239 14.93 14.5993 14.9327 14.5749 14.9304H14.5749Z" fill="white"/>
<path d="M13.2429 13.8887H11.7976C11.7516 13.8887 11.7074 13.8704 11.6749 13.8379C11.6423 13.8053 11.624 13.7612 11.624 13.7151C11.624 13.6691 11.6423 13.6249 11.6749 13.5924C11.7074 13.5598 11.7516 13.5415 11.7976 13.5415H13.2429C13.289 13.5415 13.3331 13.5598 13.3657 13.5924C13.3983 13.6249 13.4166 13.6691 13.4166 13.7151C13.4166 13.7612 13.3983 13.8053 13.3657 13.8379C13.3331 13.8704 13.289 13.8887 13.2429 13.8887Z" fill="white"/>
</svg>
