<svg width="25" height="25" viewBox="0 0 25 25" fill="none" xmlns="http://www.w3.org/2000/svg">
<path d="M17.3612 21.1804H7.639C7.08646 21.1804 6.55656 20.961 6.16586 20.5703C5.77516 20.1796 5.55566 19.6496 5.55566 19.0971V7.63878L8.68066 3.81934H17.3612C17.9138 3.81934 18.4437 4.03883 18.8344 4.42953C19.2251 4.82023 19.4446 5.35013 19.4446 5.90267V19.0971C19.4446 19.6496 19.2251 20.1796 18.8344 20.5703C18.4437 20.961 17.9138 21.1804 17.3612 21.1804Z" fill="#F74141"/>
<path d="M8.68066 7.13739C8.68066 7.27037 8.62784 7.3979 8.53381 7.49193C8.43978 7.58596 8.31225 7.63878 8.17927 7.63878H5.55566L8.68066 3.81934V7.13739Z" fill="#FFA9A9"/>
<path d="M15.9718 16.1457V11.6318C15.9714 11.3096 15.8432 11.0007 15.6154 10.7729C15.3876 10.5451 15.0787 10.4169 14.7565 10.4165H10.2426C9.92043 10.4169 9.61154 10.5451 9.38372 10.7729C9.15589 11.0007 9.02773 11.3096 9.02734 11.6318V16.1457C9.02773 16.4679 9.15589 16.7768 9.38372 17.0046C9.61154 17.2324 9.92043 17.3606 10.2426 17.3609H14.7565C15.0787 17.3606 15.3876 17.2324 15.6154 17.0046C15.8432 16.7768 15.9714 16.4679 15.9718 16.1457ZM13.8885 15.6248V16.6665H12.8468V15.6248H13.8885ZM12.8468 14.9304V12.8471H15.2773V14.9304H12.8468ZM12.8468 12.1526V11.1109H13.8885V12.1526H12.8468ZM12.1523 11.1109V12.1526H11.1107V11.1109H12.1523ZM12.1523 12.8471V14.9304H9.72179V12.8471H12.1523ZM12.1523 15.6248V16.6665H11.1107V15.6248H12.1523ZM14.7565 16.6665H14.5829V15.6248H15.2773V16.1457C15.2772 16.2838 15.2223 16.4161 15.1246 16.5138C15.027 16.6114 14.8946 16.6664 14.7565 16.6665ZM15.2773 11.6318V12.1526H14.5829V11.1109H14.7565C14.8946 11.1111 15.027 11.166 15.1246 11.2637C15.2223 11.3613 15.2772 11.4937 15.2773 11.6318ZM10.2426 11.1109H10.4162V12.1526H9.72179V11.6318C9.72194 11.4937 9.77686 11.3613 9.8745 11.2637C9.97214 11.166 10.1045 11.1111 10.2426 11.1109ZM9.72179 16.1457V15.6248H10.4162V16.6665H10.2426C10.1045 16.6664 9.97214 16.6114 9.8745 16.5138C9.77686 16.4161 9.72194 16.2838 9.72179 16.1457Z" fill="white"/>
</svg>
