<svg width="15" height="17" viewBox="0 0 15 17" fill="none" xmlns="http://www.w3.org/2000/svg">
<path d="M12.3612 0.861328H2.639C1.4884 0.861328 0.555664 1.79407 0.555664 2.94466V14.0558C0.555664 15.2064 1.4884 16.1391 2.639 16.1391H12.3612C13.5118 16.1391 14.4446 15.2064 14.4446 14.0558V2.94466C14.4446 1.79407 13.5118 0.861328 12.3612 0.861328Z" fill="#7E95C4"/>
<path d="M8.54188 1.90283H6.45855C6.26678 1.90283 6.11133 2.05829 6.11133 2.25005C6.11133 2.44182 6.26678 2.59728 6.45855 2.59728H8.54188C8.73365 2.59728 8.88911 2.44182 8.88911 2.25005C8.88911 2.05829 8.73365 1.90283 8.54188 1.90283Z" fill="white"/>
<path d="M8.54188 3.63916H6.45855C6.26678 3.63916 6.11133 3.79462 6.11133 3.98638C6.11133 4.17815 6.26678 4.33361 6.45855 4.33361H8.54188C8.73365 4.33361 8.88911 4.17815 8.88911 3.98638C8.88911 3.79462 8.73365 3.63916 8.54188 3.63916Z" fill="white"/>
<path d="M8.54188 5.375H6.45855C6.26678 5.375 6.11133 5.53046 6.11133 5.72222C6.11133 5.91399 6.26678 6.06944 6.45855 6.06944H8.54188C8.73365 6.06944 8.88911 5.91399 8.88911 5.72222C8.88911 5.53046 8.73365 5.375 8.54188 5.375Z" fill="white"/>
<path d="M8.54188 7.11133H6.45855C6.26678 7.11133 6.11133 7.26678 6.11133 7.45855C6.11133 7.65032 6.26678 7.80577 6.45855 7.80577H8.54188C8.73365 7.80577 8.88911 7.65032 8.88911 7.45855C8.88911 7.26678 8.73365 7.11133 8.54188 7.11133Z" fill="white"/>
<path d="M8.54188 8.84766H6.45855C6.26678 8.84766 6.11133 9.00311 6.11133 9.19488C6.11133 9.38664 6.26678 9.5421 6.45855 9.5421H8.54188C8.73365 9.5421 8.88911 9.38664 8.88911 9.19488C8.88911 9.00311 8.73365 8.84766 8.54188 8.84766Z" fill="white"/>
<path d="M7.15332 0.861328H7.84776V10.9308C7.84776 11.0229 7.81118 11.1112 7.74607 11.1763C7.68095 11.2414 7.59263 11.278 7.50054 11.278C7.40845 11.278 7.32014 11.2414 7.25502 11.1763C7.1899 11.1112 7.15332 11.0229 7.15332 10.9308V0.861328Z" fill="white"/>
<path d="M8.19549 10.5835H6.80494C6.62098 10.5835 6.44456 10.6566 6.31448 10.7867C6.1844 10.9167 6.11133 11.0932 6.11133 11.2771V11.9732C6.11132 12.0643 6.12926 12.1545 6.16412 12.2386C6.19897 12.3228 6.25006 12.3993 6.31447 12.4637C6.37888 12.5281 6.45534 12.5792 6.5395 12.614C6.62365 12.6489 6.71385 12.6668 6.80494 12.6668H8.19546C8.28655 12.6668 8.37675 12.6489 8.4609 12.614C8.54506 12.5792 8.62153 12.5281 8.68594 12.4637C8.75035 12.3993 8.80144 12.3228 8.8363 12.2387C8.87116 12.1545 8.88911 12.0643 8.88911 11.9732V11.2771C8.88911 11.0932 8.81603 10.9167 8.68595 10.7867C8.55587 10.6566 8.37945 10.5835 8.19549 10.5835ZM8.19365 11.9724H6.80577V11.2779H8.19466L8.19365 11.9724Z" fill="white"/>
</svg>
