<svg width="25" height="25" viewBox="0 0 25 25" fill="none" xmlns="http://www.w3.org/2000/svg">
<path d="M17.3612 21.1804H7.639C7.08646 21.1804 6.55656 20.961 6.16586 20.5703C5.77516 20.1796 5.55566 19.6496 5.55566 19.0971V7.63878L8.68066 3.81934H17.3612C17.9138 3.81934 18.4437 4.03883 18.8344 4.42953C19.2251 4.82023 19.4446 5.35013 19.4446 5.90267V19.0971C19.4446 19.6496 19.2251 20.1796 18.8344 20.5703C18.4437 20.961 17.9138 21.1804 17.3612 21.1804Z" fill="#36C684"/>
<path d="M8.68066 7.13739C8.68066 7.27037 8.62784 7.3979 8.53381 7.49193C8.43978 7.58596 8.31225 7.63878 8.17927 7.63878H5.55566L8.68066 3.81934V7.13739Z" fill="#95E5BD"/>
<path d="M14.5833 10.7637H10.4167C10.1405 10.764 9.87572 10.8738 9.68043 11.0691C9.48515 11.2644 9.3753 11.5292 9.375 11.8053V15.6248C9.3753 15.901 9.48515 16.1657 9.68043 16.361C9.87572 16.5563 10.1405 16.6661 10.4167 16.6665H14.5833C14.8595 16.6661 15.1243 16.5563 15.3196 16.361C15.5149 16.1657 15.6247 15.901 15.625 15.6248V11.8053C15.6247 11.5292 15.5149 11.2644 15.3196 11.0691C15.1243 10.8738 14.8595 10.764 14.5833 10.7637ZM10.0694 13.1942H12.1528V14.2359H10.0694V13.1942ZM12.8472 13.1942H14.9306V14.2359H12.8472V13.1942ZM14.9306 11.8053V12.4998H12.8472V11.4581H14.5833C14.6754 11.4582 14.7637 11.4948 14.8288 11.5599C14.8939 11.625 14.9305 11.7133 14.9306 11.8053ZM10.4167 11.4581H12.1528V12.4998H10.0694V11.8053C10.0695 11.7133 10.1061 11.625 10.1712 11.5599C10.2363 11.4948 10.3246 11.4582 10.4167 11.4581ZM10.0694 15.6248V14.9303H12.1528V15.972H10.4167C10.3246 15.9719 10.2363 15.9353 10.1712 15.8702C10.1061 15.8051 10.0695 15.7168 10.0694 15.6248ZM14.5833 15.972H12.8472V14.9303H14.9306V15.6248C14.9305 15.7168 14.8939 15.8051 14.8288 15.8702C14.7637 15.9353 14.6754 15.9719 14.5833 15.972Z" fill="white"/>
</svg>
